<?xml version="1.0" encoding="UTF-8" standalone="no"?>
<svg
   version="1.1"
   id="Layer_1"
   x="0px"
   y="0px"
   viewBox="0 0 122.88 118.78"
   style="enable-background:new 0 0 122.88 118.78"
   xml:space="preserve"
   sodipodi:docname="clinic.svg"
   inkscape:version="1.4.3 (fcd0343856, 2026-01-01)"
   xmlns:inkscape="http://www.inkscape.org/namespaces/inkscape"
   xmlns:sodipodi="http://sodipodi.sourceforge.net/DTD/sodipodi-0.dtd"
   xmlns="http://www.w3.org/2000/svg"
   xmlns:svg="http://www.w3.org/2000/svg"><defs
     id="defs1" /><sodipodi:namedview
     id="namedview1"
     pagecolor="#ffffff"
     bordercolor="#000000"
     borderopacity="0.25"
     inkscape:showpageshadow="2"
     inkscape:pageopacity="0.0"
     inkscape:pagecheckerboard="0"
     inkscape:deskcolor="#d1d1d1"
     inkscape:zoom="6.7603974"
     inkscape:cx="61.386923"
     inkscape:cy="59.389999"
     inkscape:window-width="1920"
     inkscape:window-height="1011"
     inkscape:window-x="0"
     inkscape:window-y="0"
     inkscape:window-maximized="1"
     inkscape:current-layer="Layer_1" /><g
     id="g1"><path
       d="M85.41,33.6h28.34h4.57c0.06,0,0.13-0.01,0.21-0.04L100.89,5.47c-0.13-0.2-0.29-0.49-0.44-0.77l0,0l-0.05-0.11 c-0.09-0.18-0.14-0.37-0.17-0.56l-77.56,0c-0.14,0-0.04,0.32-0.23,0.67c-0.14,0.25-0.28,0.51-0.44,0.77L4.35,33.56 c0.08,0.03,0.15,0.04,0.21,0.04h4.57h28.34c0.48-5.84,3.05-11.08,6.96-14.99c4.35-4.35,10.37-7.05,17.01-7.05 c6.64,0,12.66,2.69,17.01,7.05C82.36,22.51,84.92,27.76,85.41,33.6L85.41,33.6z M53.71,96.07c0.89,0,1.61,0.72,1.61,1.61 c0,0.89-0.72,1.61-1.61,1.61c-0.89,0-1.61-0.72-1.61-1.61C52.1,96.79,52.82,96.07,53.71,96.07L53.71,96.07z M59.18,23.54h4.52 c0.85,0,1.54,0.69,1.54,1.54v6.74h6.74c0.85,0,1.54,0.69,1.54,1.54v4.52c0,0.85-0.69,1.54-1.54,1.54h-6.74v6.74 c0,0.85-0.69,1.54-1.54,1.54h-4.52c-0.85,0-1.54-0.69-1.54-1.54v-6.74H50.9c-0.85,0-1.54-0.69-1.54-1.54v-4.52 c0-0.85,0.69-1.54,1.54-1.54h6.74v-6.74C57.64,24.23,58.33,23.54,59.18,23.54L59.18,23.54z M37.47,37.63H11.15v77.11h33.99V84.23 c0-2.45,1-4.68,2.61-6.29c1.61-1.61,3.84-2.61,6.29-2.61h14.8c2.45,0,4.68,1,6.29,2.61c1.61,1.61,2.61,3.84,2.61,6.29v30.51h33.99 V37.63H85.41c-0.48,5.84-3.05,11.08-6.96,14.99c-4.35,4.35-10.37,7.05-17.01,7.05c-6.64,0-12.66-2.69-17.01-7.05 C40.52,48.72,37.96,43.47,37.47,37.63L37.47,37.63z M75.59,21.46c-3.62-3.62-8.63-5.86-14.15-5.86c-5.53,0-10.53,2.24-14.15,5.86 c-3.62,3.62-5.86,8.63-5.86,14.15s2.24,10.53,5.86,14.15c3.62,3.62,8.63,5.86,14.15,5.86c5.53,0,10.53-2.24,14.15-5.86 c3.62-3.62,5.86-8.63,5.86-14.15S79.22,25.08,75.59,21.46L75.59,21.46z M49.18,114.75h24.53V84.23c0-1.34-0.55-2.55-1.43-3.43 c-0.88-0.88-2.1-1.43-3.43-1.43h-14.8c-1.34,0-2.55,0.55-3.43,1.43c-0.88,0.88-1.43,2.1-1.43,3.43V114.75L49.18,114.75z M88.21,79.74h14.83c1.11,0,2.02,0.9,2.02,2.02v17.13c0,1.11-0.9,2.02-2.02,2.02H88.21c-1.11,0-2.02-0.9-2.02-2.02V81.76 C86.19,80.65,87.09,79.74,88.21,79.74L88.21,79.74z M101.01,83.78H90.23v13.1h10.79V83.78L101.01,83.78z M88.21,48.8h14.83 c1.11,0,2.02,0.9,2.02,2.02v17.13c0,1.11-0.9,2.02-2.02,2.02H88.21c-1.11,0-2.02-0.9-2.02-2.02V50.82 C86.19,49.71,87.09,48.8,88.21,48.8L88.21,48.8z M101.01,52.84H90.23v13.1h10.79V52.84L101.01,52.84z M19.85,79.74h14.83 c1.11,0,2.02,0.9,2.02,2.02v17.13c0,1.11-0.9,2.02-2.02,2.02H19.85c-1.11,0-2.02-0.9-2.02-2.02V81.76 C17.83,80.65,18.73,79.74,19.85,79.74L19.85,79.74z M32.66,83.78H21.87v13.1h10.79V83.78L32.66,83.78z M19.85,48.8h14.83 c1.11,0,2.02,0.9,2.02,2.02v17.13c0,1.11-0.9,2.02-2.02,2.02H19.85c-1.11,0-2.02-0.9-2.02-2.02V50.82 C17.83,49.71,18.73,48.8,19.85,48.8L19.85,48.8z M32.66,52.84H21.87v13.1h10.79V52.84L32.66,52.84z M7.11,37.63H4.56 c-0.88,0-1.85-0.31-2.63-0.8c-0.48-0.3-0.91-0.68-1.24-1.12C0.26,35.13,0,34.47,0,33.76c0-0.54,0.15-1.08,0.47-1.6L18.58,3.33 c0.12-0.19,0.23-0.39,0.33-0.58C19.71,1.31,20.44,0,22.66,0h77.55c2.23,0,2.95,1.31,3.75,2.75v0.01c0.09,0.16,0.18,0.33,0.34,0.57 l18.11,28.84c0.33,0.52,0.47,1.06,0.47,1.6c0,0.71-0.26,1.37-0.69,1.95c-0.29,0.39-0.67,0.74-1.1,1.03l-0.14,0.09 c-0.78,0.49-1.75,0.8-2.63,0.8h-2.56v79.13c0,1.11-0.9,2.02-2.02,2.02H75.72H47.16H9.13c-1.11,0-2.02-0.9-2.02-2.02V37.63 L7.11,37.63z"
       id="path1" /></g><path
     style="fill:#ff0000;stroke-width:0.14792"
     d="m 58.255847,47.207787 -0.492971,-0.440232 -0.04421,-3.710378 -0.04421,-3.710378 H 54.059973 50.44549 l -0.483075,-0.431282 -0.483075,-0.431283 -0.04702,-2.55103 c -0.02586,-1.403067 -0.0065,-2.712356 0.04296,-2.909532 0.04949,-0.197175 0.263417,-0.519238 0.475397,-0.715694 l 0.385418,-0.357194 h 3.676407 3.676408 v -3.559811 c 0,-3.69275 0.04028,-3.970944 0.645974,-4.461576 0.273489,-0.221534 0.684572,-0.256009 3.08668,-0.25886 l 2.771172,-0.0033 0.483074,0.431387 0.483075,0.431388 0.04636,3.71038 0.04636,3.710381 h 3.612337 3.61234 l 0.483073,0.431627 0.483076,0.431628 v 2.718184 c 0,2.970515 -0.0975,3.366289 -0.904888,3.673257 -0.204432,0.07773 -1.931617,0.141319 -3.838191,0.141319 h -3.466498 l -8.25e-4,3.291227 c -8.64e-4,3.448393 -0.09585,4.174306 -0.606818,4.637314 -0.277314,0.251287 -0.604746,0.285886 -3.093267,0.326858 l -2.783124,0.04582 z"
     id="path2" /><path
     style="fill:#f9f9f9;stroke-width:0.14792"
     d="M 59.883028,55.454932 C 50.90288,54.842138 43.263458,47.804357 41.779649,38.777279 41.412756,36.545205 41.543267,33.03512 42.071217,30.935539 43.98819,23.31202 49.896083,17.671641 57.688916,16.025022 c 1.76525,-0.372996 5.792479,-0.368866 7.536157,0.0077 3.592248,0.775844 6.79257,2.358453 9.331743,4.614692 7.656022,6.802931 9.006851,17.911551 3.207124,26.373969 -1.663528,2.427264 -4.722597,5.052191 -7.543069,6.472557 -2.982685,1.502057 -6.707824,2.208671 -10.337843,1.960962 z m 4.712084,-7.965375 c 0.691274,-0.421499 0.783901,-0.976619 0.784834,-4.703611 l 8.25e-4,-3.291227 h 3.483473 c 4.817815,0 4.683311,0.09284 4.773993,-3.295087 0.07391,-2.761391 -0.02165,-3.431803 -0.566901,-3.977056 l -0.419712,-0.419712 h -3.635427 -3.635426 l -8.25e-4,-3.291227 c -4.53e-4,-1.810174 -0.06931,-3.537814 -0.153015,-3.839199 -0.0837,-0.301385 -0.325285,-0.684129 -0.536844,-0.850542 -0.357405,-0.281134 -0.587419,-0.302569 -3.246818,-0.302569 h -2.862164 l -0.483074,0.431391 -0.483075,0.43139 -0.04421,3.710378 -0.04421,3.710378 h -3.614484 -3.614483 l -0.483074,0.43131 -0.483075,0.431311 -0.04139,2.785956 c -0.03838,2.582848 -0.0195,2.821273 0.258928,3.270384 0.165177,0.266435 0.471035,0.549332 0.679684,0.628662 0.20865,0.07933 1.939287,0.144232 3.84586,0.144232 H 57.541 l 5.53e-4,3.513107 c 5.12e-4,3.253709 0.02242,3.548981 0.296775,3.998961 0.162923,0.267219 0.445572,0.545898 0.628108,0.619286 0.182537,0.07339 1.530041,0.137401 2.994452,0.142255 2.386121,0.0079 2.711535,-0.02104 3.134228,-0.278771 z"
     id="path3" /><path
     style="fill:#ffb380;stroke-width:0.14792"
     d="M 11.241943,76.178953 V 37.719676 h 13.073902 13.073902 l 0.102101,0.850542 c 0.973442,8.109275 6.182575,15.324812 13.588954,18.823016 7.779338,3.674361 16.632823,3.006839 23.866888,-1.799479 2.095754,-1.392421 5.07688,-4.342965 6.395665,-6.330054 2.26457,-3.412161 3.404766,-6.492314 4.095351,-11.063284 l 0.07263,-0.480741 H 98.59558 111.67982 V 76.178953 114.63823 H 94.74295 77.806076 V 98.90838 c 0,-15.180485 -0.0102,-15.769752 -0.292207,-16.872373 -0.424955,-1.661553 -1.084826,-2.804784 -2.36538,-4.098037 -0.883342,-0.8921 -1.375054,-1.249681 -2.371703,-1.724738 -0.691527,-0.329619 -1.61006,-0.671869 -2.041184,-0.760554 -0.513464,-0.105624 -3.728102,-0.160492 -9.318979,-0.15906 -9.368538,0.0024 -9.513142,0.01387 -11.326927,0.898234 -2.299926,1.1214 -3.986057,3.146399 -4.667531,5.60558 -0.301241,1.087063 -0.306474,1.37691 -0.306474,16.973373 V 114.63823 H 28.178817 11.241943 Z m 24.49774,24.497737 c 0.25338,-0.1534 0.586201,-0.48622 0.739601,-0.739598 0.263204,-0.434748 0.281473,-0.939674 0.324419,-8.966109 0.02503,-4.67798 0.0018,-8.869301 -0.05163,-9.31405 -0.0808,-0.672625 -0.191263,-0.902758 -0.656767,-1.368263 l -0.559631,-0.55963 -8.189998,5.53e-4 c -7.752088,5.24e-4 -8.21436,0.01541 -8.645599,0.278378 -0.970939,0.592077 -0.949643,0.361381 -0.949643,10.287497 0,7.312242 0.03789,9.059228 0.205145,9.459534 0.210063,0.502758 0.820803,1.032228 1.348018,1.168648 0.162712,0.0421 3.823739,0.0665 8.135616,0.0543 7.397403,-0.021 7.865771,-0.038 8.300468,-0.30121 z m 68.099277,0.11417 c 0.32812,-0.13129 0.7455,-0.44747 0.9275,-0.70262 l 0.33091,-0.46392 0.0414,-9.078317 c 0.0403,-8.833184 0.0333,-9.094886 -0.25572,-9.69201 -0.5697,-1.176843 -0.14291,-1.124953 -9.252548,-1.124953 -9.102512,0 -8.683491,-0.05056 -9.24816,1.115893 -0.281717,0.58195 -0.292699,0.93883 -0.292699,9.511861 0,7.259952 0.03794,8.998027 0.205145,9.398208 0.210696,0.504268 0.824213,1.035018 1.348018,1.166168 0.162713,0.0407 3.739187,0.0818 7.947722,0.0912 6.722892,0.0151 7.724312,-0.0118 8.248462,-0.22154 z M 35.79082,69.724371 c 0.225255,-0.133062 0.535064,-0.449241 0.688464,-0.702621 0.265313,-0.438235 0.27891,-0.907764 0.27891,-9.631751 0,-8.723987 -0.0136,-9.193516 -0.27891,-9.63175 -0.1534,-0.25338 -0.486221,-0.586201 -0.739601,-0.739601 -0.436427,-0.264219 -0.885315,-0.27891 -8.522348,-0.27891 h -8.061656 l -0.497477,0.35481 c -0.927473,0.661492 -0.907766,0.437984 -0.907766,10.295451 0,9.880106 -0.01523,9.709157 0.9156,10.27667 0.475366,0.289822 0.726181,0.298541 8.602436,0.299078 7.245268,4.94e-4 8.156589,-0.02532 8.522348,-0.241376 z m 68.36237,-0.0137 c 0.23801,-0.140596 0.56446,-0.527715 0.72544,-0.860263 0.28179,-0.582096 0.29258,-0.935099 0.28945,-9.47013 -0.003,-8.389342 -0.0183,-8.898734 -0.28421,-9.484348 -0.54434,-1.198936 -0.20225,-1.156192 -9.253398,-1.156192 -7.722086,0 -8.004355,0.0098 -8.488687,0.295841 -0.275546,0.162712 -0.625008,0.527776 -0.776582,0.811253 -0.260168,0.48657 -0.27559,1.018765 -0.27559,9.509773 0,8.71067 0.0094,9.012699 0.296654,9.575848 0.541662,1.061744 0.179058,1.021325 9.221383,1.027925 7.42832,0.0054 8.1493,-0.01564 8.54554,-0.249707 z"
     id="path4" /><path
     style="fill:#b3b3b3;stroke-width:0.14792"
     d="m 49.291828,98.847739 0.03959,-15.790492 0.31964,-0.691627 c 0.45272,-0.979582 1.422329,-1.970518 2.395954,-2.448652 l 0.834493,-0.409808 h 8.579378 8.579377 l 0.685776,0.341193 c 1.108314,0.551416 1.847949,1.286078 2.377357,2.361369 l 0.486954,0.98906 0.0396,15.719725 0.0396,15.719723 H 61.460895 49.252238 Z m 5.141208,0.333665 c 0.615588,-0.318333 0.889155,-0.788378 0.889155,-1.527753 0,-0.543741 -0.08362,-0.731136 -0.521716,-1.169236 -0.483706,-0.483707 -0.572265,-0.516019 -1.215544,-0.443511 -0.939945,0.105945 -1.516986,0.725927 -1.516986,1.629873 0,0.746104 0.30844,1.242729 0.94348,1.519113 0.602489,0.262217 0.901581,0.260432 1.421611,-0.0085 z"
     id="path5" /><path
     style="fill:#b3b3b3;stroke-width:0.14792"
     d="m 21.892204,90.305342 v -6.434533 h 5.325131 5.32513 v 6.434533 6.434532 h -5.32513 -5.325131 z"
     id="path6" /><path
     style="fill:#b3b3b3;stroke-width:0.14792"
     d="M 4.5470839,33.393007 C 5.0092524,32.80649 22.272954,5.1760568 22.468772,4.7094709 l 0.236994,-0.5646936 38.697137,-0.0015 38.697137,-0.0015 0.36542,0.7043294 c 0.20098,0.3873812 4.30412,6.9754793 9.1181,14.6402163 4.81397,7.664739 8.75268,13.970923 8.75268,14.013742 0,0.04282 -7.38454,0.07785 -16.41009,0.07785 H 85.51606 L 85.42664,32.875293 C 85.223476,31.278958 84.549108,28.525482 84.009021,27.087099 82.803757,23.87718 80.983891,21.077688 78.469156,18.565147 75.047847,15.146822 71.098037,13.01396 66.218648,11.94998 64.920704,11.666956 64.27019,11.62213 61.460887,11.62213 c -3.584849,0 -4.925485,0.194645 -7.691856,1.116769 -8.730461,2.910157 -15.287293,10.930243 -16.281137,19.914514 l -0.102268,0.924502 H 20.893504 c -13.1727881,0 -16.4627947,-0.03721 -16.3464201,-0.184901 z"
     id="path7" /><path
     style="fill:#afdde9;stroke-width:0.14792"
     d="m 21.892204,90.305342 v -6.434533 h 5.325131 5.32513 v 6.434533 6.434532 h -5.32513 -5.325131 z"
     id="path8" /><path
     style="fill:#afdde9;stroke-width:0.14792"
     d="m 21.892204,59.389999 v -6.434533 h 5.325131 5.32513 v 6.434533 6.434533 h -5.32513 -5.325131 z"
     id="path9" /><path
     style="fill:#afdde9;stroke-width:0.14792"
     d="m 90.231381,59.389999 v -6.434533 h 5.325131 5.325128 v 6.434533 6.434533 h -5.325128 -5.325131 z"
     id="path10" /><path
     style="fill:#afdde9;stroke-width:0.14792"
     d="m 90.231381,90.305342 v -6.434533 h 5.325131 5.325128 v 6.434533 6.434532 h -5.325128 -5.325131 z"
     id="path11" /></svg>
