<?xml version="1.0" encoding="UTF-8" standalone="no"?>
<svg
   version="1.1"
   id="Layer_1"
   x="0px"
   y="0px"
   viewBox="0 0 90.81 122.88"
   style="enable-background:new 0 0 90.81 122.88"
   xml:space="preserve"
   sodipodi:docname="dentist.svg"
   inkscape:version="1.4.3 (fcd0343856, 2026-01-01)"
   xmlns:inkscape="http://www.inkscape.org/namespaces/inkscape"
   xmlns:sodipodi="http://sodipodi.sourceforge.net/DTD/sodipodi-0.dtd"
   xmlns="http://www.w3.org/2000/svg"
   xmlns:svg="http://www.w3.org/2000/svg"><defs
     id="defs1" /><sodipodi:namedview
     id="namedview1"
     pagecolor="#ffffff"
     bordercolor="#000000"
     borderopacity="0.25"
     inkscape:showpageshadow="2"
     inkscape:pageopacity="0.0"
     inkscape:pagecheckerboard="0"
     inkscape:deskcolor="#d1d1d1"
     inkscape:zoom="6.5348309"
     inkscape:cx="45.448766"
     inkscape:cy="61.439999"
     inkscape:window-width="1920"
     inkscape:window-height="1011"
     inkscape:window-x="0"
     inkscape:window-y="0"
     inkscape:window-maximized="1"
     inkscape:current-layer="Layer_1" /><g
     id="g1"><path
       d="M6.34,5.95c3.14-3.02,7.01-4.76,11.33-5.37c4.41-0.62,9.29-0.05,14.32,1.55c2.76,0.88,4.91,1.62,6.67,2.23 c3.33,1.15,5.12,1.78,6.74,1.78c1.95,0.01,4.3-0.84,9.39-2.66c1.58-0.57,3.31-1.19,3.48-1.25c4.4-1.55,8.68-2.32,12.62-2.23 c3.98,0.09,7.62,1.03,10.7,2.89c4.38,2.65,6.8,6.2,8.05,10.23c1.2,3.84,1.3,8.04,1.07,12.29c-0.33,6.13-1.39,12.13-3.19,17.99 c-1.72,5.61-4.11,11.09-7.16,16.45c1.55,9.74,1.98,18.5,1.71,26.24c-0.27,7.99-1.26,14.88-2.51,20.63 c-1.36,6.3-3.32,11.17-5.49,13.69c-1.24,1.44-2.63,2.26-4.13,2.36c-1.59,0.1-3.09-0.59-4.42-2.19c-1.86-2.24-3.55-6.67-4.81-13.78 c-0.35-1.97-0.55-4.14-0.64-5.08l-0.03-0.27l0,0l-0.06-0.56c-1.38-14-2.74-27.78-15.03-27.92c-5.86,1.34-8.95,4.1-10.67,8.18 c-1.88,4.47-2.33,10.72-2.85,18.36l0,0.03c-0.07,1.06-0.31,4.63-0.74,7.23c-1.19,7.21-2.9,11.7-4.8,13.95 c-1.33,1.56-2.82,2.25-4.41,2.16c-1.5-0.08-2.9-0.88-4.14-2.3c-2.19-2.5-4.14-7.35-5.39-13.73c-1.03-5.27-1.82-12.26-2.22-20.83 c-0.35-7.56-0.39-16.36-0.02-26.3c-2.11-4.83-3.99-9.69-5.52-14.6c-1.58-5.08-2.79-10.23-3.49-15.48 c-0.58-4.39-1.02-8.41-0.43-12.26C0.9,13.31,2.61,9.55,6.34,5.95L6.34,5.95z M18.29,5.06c-3.39,0.48-6.4,1.82-8.81,4.15 c-2.9,2.8-4.23,5.71-4.71,8.82c-0.51,3.32-0.11,6.98,0.43,11c0.66,4.94,1.81,9.84,3.33,14.72c1.52,4.89,3.42,9.74,5.55,14.6l0,0 c0.13,0.3,0.2,0.64,0.19,0.99c-0.39,10.02-0.35,18.88,0.01,26.47c0.38,8.29,1.15,15.05,2.15,20.16c1.1,5.61,2.67,9.71,4.34,11.62 c0.42,0.48,0.76,0.75,0.99,0.76c0.14,0.01,0.37-0.17,0.71-0.56c1.41-1.66,2.75-5.42,3.79-11.75c0.39-2.35,0.62-5.79,0.69-6.81 l0-0.03c0.54-8.05,1.02-14.63,3.2-19.82c2.33-5.52,6.41-9.22,14.09-10.91l0,0.01c0.15-0.03,0.31-0.05,0.47-0.05 c16.65-0.07,18.22,15.84,19.81,32l0.05,0.56l0,0l0,0.01l0.03,0.28c0.08,0.84,0.26,2.78,0.61,4.73c1.11,6.3,2.44,10.02,3.82,11.68 c0.32,0.39,0.54,0.57,0.66,0.56c0.22-0.01,0.55-0.29,0.97-0.78c1.68-1.96,3.29-6.12,4.49-11.71c1.2-5.56,2.16-12.18,2.42-19.82 c0.26-7.67-0.18-16.38-1.78-26.12c-0.1-0.51-0.02-1.06,0.27-1.55c3.08-5.29,5.46-10.69,7.16-16.21c1.69-5.51,2.69-11.14,2.99-16.89 c0.2-3.79,0.13-7.49-0.88-10.71c-0.94-3.03-2.76-5.7-6.07-7.69c-2.39-1.45-5.27-2.18-8.45-2.25c-3.39-0.07-7.13,0.61-11.03,1.98 c-2.39,0.85-2.96,1.05-3.46,1.23c-5.6,2.01-8.19,2.93-10.91,2.93c-2.39-0.01-4.43-0.72-8.22-2.03c-1.73-0.6-3.85-1.34-6.57-2.2 C26.23,5.04,22.03,4.54,18.29,5.06L18.29,5.06z"
       id="path1" /></g><path
     style="fill:#f2f2f2;stroke-width:0.153026"
     d="M 20.845152,117.45519 C 17.741179,114.05895 15.453295,103.7799 14.542328,89.137732 14.076147,81.64471 13.949913,71.094723 14.22936,62.981504 l 0.141923,-4.120461 -1.284471,-3.071768 C 8.1997466,44.102029 5.8173089,35.224774 4.8084979,24.943262 4.1231285,17.958175 5.3327383,13.681882 9.0875048,9.8158326 10.598921,8.259622 11.802065,7.3785796 13.506584,6.579815 17.593666,4.6645436 22.520803,4.439558 28.386351,5.900367 c 0.841643,0.2096106 4.181439,1.2700908 7.421768,2.3566225 3.240328,1.0865317 6.467223,2.0833615 7.170877,2.2151765 2.960917,0.554668 5.000423,0.227736 10.53739,-1.6891413 8.001665,-2.770147 9.048297,-3.1064046 10.831109,-3.4797774 2.757391,-0.5774776 4.781457,-0.7685644 6.96269,-0.6573293 4.326354,0.2206288 7.642859,1.5450248 10.381285,4.1456076 3.236618,3.0736964 4.464155,6.7869644 4.460672,13.4934184 -0.006,11.508858 -3.024367,22.794036 -9.094939,34.004201 -1.528116,2.821881 -1.489097,2.554779 -0.932641,6.384495 2.208191,15.197462 1.838652,29.797001 -1.092045,43.14394 -0.906049,4.12632 -2.135272,7.80302 -3.312629,9.90833 -0.742951,1.32852 -1.800778,2.49643 -2.142393,2.36534 -0.365546,-0.14027 -1.372899,-1.75368 -1.929057,-3.08963 -0.927016,-2.22679 -1.976989,-6.4434 -2.534101,-10.17674 -0.119478,-0.80064 -0.429746,-3.556 -0.689485,-6.123014 -1.305399,-12.90129 -2.75544,-18.795022 -5.779154,-23.489514 -1.515837,-2.353426 -4.192243,-4.593715 -6.676235,-5.588354 -2.118552,-0.84831 -3.598748,-1.121734 -6.138132,-1.133848 -2.190737,-0.01045 -2.367328,0.01206 -3.873179,0.493721 -4.741828,1.516716 -7.864801,3.689849 -10.050402,6.993612 -2.799147,4.231203 -3.983575,9.045669 -4.743479,19.281294 -0.705233,9.499233 -0.990265,11.695193 -2.065712,15.914723 -0.609315,2.39065 -1.278265,4.25808 -1.946003,5.43243 -0.395493,0.69555 -1.239008,1.68328 -1.437506,1.68328 -0.05921,0 -0.450663,-0.37531 -0.869898,-0.83402 z"
     id="path2" /><path
     sodipodi:type="star"
     style="fill:#ffffff"
     id="path3"
     inkscape:flatsided="false"
     sodipodi:sides="4"
     sodipodi:cx="11.93604"
     sodipodi:cy="26.014444"
     sodipodi:r1="14.538289"
     sodipodi:r2="7.269145"
     sodipodi:arg1="-1.5602704"
     sodipodi:arg2="-0.77487224"
     inkscape:rounded="0"
     inkscape:randomized="0"
     d="m 12.089066,11.476961 5.040854,9.451809 9.343604,5.2387 -9.45181,5.040854 -5.2387,9.343604 -5.040854,-9.45181 -9.3436038,-5.2387 9.4518096,-5.040854 z"
     transform="matrix(1.0318154,0,0,1.0318154,8.0402098,-3.8847458)" /></svg>
