<?xml version="1.0" encoding="UTF-8" standalone="no"?>
<svg
   id="Layer_1"
   data-name="Layer 1"
   viewBox="0 0 122.88 91.21"
   version="1.1"
   sodipodi:docname="optics.svg"
   inkscape:version="1.4.3 (fcd0343856, 2026-01-01)"
   xmlns:inkscape="http://www.inkscape.org/namespaces/inkscape"
   xmlns:sodipodi="http://sodipodi.sourceforge.net/DTD/sodipodi-0.dtd"
   xmlns="http://www.w3.org/2000/svg"
   xmlns:svg="http://www.w3.org/2000/svg">
  <sodipodi:namedview
     id="namedview1"
     pagecolor="#ffffff"
     bordercolor="#000000"
     borderopacity="0.25"
     inkscape:showpageshadow="2"
     inkscape:pageopacity="0.0"
     inkscape:pagecheckerboard="0"
     inkscape:deskcolor="#d1d1d1"
     inkscape:zoom="8.7076825"
     inkscape:cx="61.210316"
     inkscape:cy="45.649345"
     inkscape:window-width="1920"
     inkscape:window-height="1011"
     inkscape:window-x="0"
     inkscape:window-y="0"
     inkscape:window-maximized="1"
     inkscape:current-layer="Layer_1" />
  <defs
     id="defs1">
    <style
       id="style1">.cls-1{fill-rule:evenodd;}</style>
  </defs>
  <title
     id="title1">eyeglasses</title>
  <path
     class="cls-1"
     d="M27.52,36.17a27.54,27.54,0,0,1,26,18.34,15.45,15.45,0,0,1,7.59-2.34,16.06,16.06,0,0,1,8.44,2.08,27.53,27.53,0,0,1,41.59-13.14l-5.47-22.65c-.2-.84-.32-1.41-.42-1.89-.29-1.36-.35-1.65-1.89-3.23L95.89,5.68A3.35,3.35,0,0,1,100.69,1l7.43,7.66c2.89,3,3,3.6,3.64,6.51h0c.1.51.23,1.11.37,1.69l8.58,35.53a3.37,3.37,0,0,1,.09.77,27.52,27.52,0,1,1-53,10.51A25.8,25.8,0,0,1,68,60.9a10.19,10.19,0,0,0-6.66-2.5A9.67,9.67,0,0,0,55,61.48c0,.73.08,1.47.08,2.21a27.52,27.52,0,1,1-53-10.51,2.91,2.91,0,0,1,.1-.77l8.57-35.53c.14-.58.27-1.18.37-1.68.62-2.92.75-3.55,3.64-6.52L22.2,1A3.35,3.35,0,0,1,27,5.68l-7.44,7.67C18,14.93,18,15.21,17.68,16.56c-.1.48-.22,1.05-.42,1.9L11.79,41.11a27.33,27.33,0,0,1,15.73-4.94Zm67.84,6.32a21.21,21.21,0,0,1,18.83,11.45V54a3.28,3.28,0,0,0,.62,1.27A21.2,21.2,0,1,1,95.36,42.49ZM8.68,54a3.14,3.14,0,0,1-.62,1.27,21.26,21.26,0,1,0,.63-1.32V54ZM16,62a2,2,0,0,1-3.83-1A17.63,17.63,0,0,1,23.6,48.74a2,2,0,1,1,1.25,3.73A13.61,13.61,0,0,0,16,62Z"
     id="path1" />
  <path
     style="fill:#afdde9;stroke-width:0.114841"
     d="M 25.392189,84.851158 C 20.145403,84.302712 14.888508,81.566065 11.541532,77.64075 6.6893821,71.950173 5.1278867,64.347405 7.3678593,57.319544 c 0.48572,-1.523935 2.0039948,-4.55758 2.9381717,-5.870723 1.039069,-1.460586 3.46564,-3.885731 4.91625,-4.913361 2.750224,-1.948294 6.106087,-3.292083 9.385704,-3.758321 1.547926,-0.220056 4.389638,-0.216904 5.925014,0.0066 9.912697,1.442806 17.504931,9.622543 18.144018,19.54804 0.399577,6.205735 -1.830891,12.086407 -6.254713,16.490667 -4.432261,4.412661 -10.828574,6.676986 -17.030115,6.02874 z M 14.819598,63.163098 c 0.66826,-0.185647 1.086886,-0.732676 1.494411,-1.952782 1.295676,-3.879181 4.189739,-6.977256 7.821778,-8.373158 1.448488,-0.556698 1.851882,-0.781992 2.128615,-1.188823 0.91468,-1.344693 -0.05315,-3.185383 -1.674863,-3.185383 -0.546697,0 -2.186144,0.610293 -3.597213,1.339081 -3.989746,2.060623 -7.223769,5.901927 -8.586058,10.198339 -0.326422,1.029477 -0.349874,1.195752 -0.233713,1.657069 0.31638,1.256456 1.375511,1.858897 2.647043,1.505657 z"
     id="path2" />
  <path
     style="fill:#afdde9;stroke-width:0.114841"
     d="M 93.42325,84.747848 C 87.43777,84.146161 81.941777,81.052096 78.438498,76.311924 77.470322,75.001916 76.967709,74.163781 76.257782,72.675459 73.52683,66.950172 73.54747,60.326731 76.314207,54.567963 79.367989,48.211735 85.330459,43.82045 92.33226,42.770868 c 1.807888,-0.271005 4.553231,-0.242501 6.383437,0.06628 4.380913,0.739114 8.089383,2.596246 11.230093,5.623812 1.68221,1.621609 3.15264,3.529609 3.93998,5.112424 1.19382,2.399982 1.44957,3.053547 1.93241,4.938168 0.52767,2.059602 0.67267,3.488823 0.59951,5.909098 -0.0625,2.066516 -0.22397,3.177981 -0.71957,4.952257 -2.19791,7.86868 -8.75747,13.756341 -16.877337,15.148591 -1.537297,0.263588 -3.999815,0.366856 -5.397533,0.226352 z"
     id="path3" />
</svg>
