<?xml version="1.0" encoding="UTF-8" standalone="no"?>
<svg
   id="Layer_1"
   data-name="Layer 1"
   viewBox="0 0 98.57 120.28"
   version="1.1"
   sodipodi:docname="pharmacy.svg"
   inkscape:version="1.4.3 (fcd0343856, 2026-01-01)"
   xmlns:inkscape="http://www.inkscape.org/namespaces/inkscape"
   xmlns:sodipodi="http://sodipodi.sourceforge.net/DTD/sodipodi-0.dtd"
   xmlns="http://www.w3.org/2000/svg"
   xmlns:svg="http://www.w3.org/2000/svg">
  <defs
     id="defs1" />
  <sodipodi:namedview
     id="namedview1"
     pagecolor="#ffffff"
     bordercolor="#000000"
     borderopacity="0.25"
     inkscape:showpageshadow="2"
     inkscape:pageopacity="0.0"
     inkscape:pagecheckerboard="0"
     inkscape:deskcolor="#d1d1d1"
     inkscape:zoom="5.1772425"
     inkscape:cx="4.2493663"
     inkscape:cy="-39.306638"
     inkscape:window-width="1920"
     inkscape:window-height="1011"
     inkscape:window-x="0"
     inkscape:window-y="0"
     inkscape:window-maximized="1"
     inkscape:current-layer="Layer_1" />
  <title
     id="title1">medicine-sign</title>
  <path
     d="M52.42,7.46A4.2,4.2,0,0,0,49,.43,3.21,3.21,0,0,0,46,1.69,3.14,3.14,0,0,0,44.89,4.6c0,1.51.18,1.82,1.53,3.06S48,9,49.7,8.82a3.23,3.23,0,0,0,2.72-1.36ZM49.06,112.13c-.1-5.17-.28-7.94-.52-7.93s-.29,2.81-.16,8.14c.12,4.62.34,8,.52,7.94a56.31,56.31,0,0,0,.16-8.15ZM47.4,108c-.1-3.13-.58-3.75-1.48-1.92-.65,1.31-.4,3.68.56,5.45l.58,1.06.21-.89a21.15,21.15,0,0,0,.13-3.7Zm4.1,3.29c.49-1,.38-4.4-.15-4.91-.8-.78-.94-.41-1,2.6,0,2.19.06,3,.37,3s.59-.32.78-.7Zm2.86-1.74c2.2-3.72,1.28-6.53-3.28-10l-2.15-1.62a14.71,14.71,0,0,1-2.48-2.51c-.89-1.24-1-1.66-.9-3.5l.11-2.09-1.49-.9A6.05,6.05,0,0,0,42.11,88c-1.51,0-2.19,4.6-1.06,7.16s4.38,5.21,7.81,6.53c1.79.69,3.87,2.85,4.18,4.36a11.18,11.18,0,0,1-.33,4.77c-.22.79-.18.83.34.39a9.22,9.22,0,0,0,1.31-1.73Zm-10.2-.24c-.33-2.37,0-3.93,1.06-5.12s.88-1.91-.48-2.23c-.79-.18-1.11,0-1.79.82s-.81,1.32-.63,3.4a7.73,7.73,0,0,0,1,3.61,6,6,0,0,0,1,1.26,6.05,6.05,0,0,0-.11-1.74ZM54.5,97.8a7.73,7.73,0,0,0,2.65-6c-.06-3.4-2.21-6.25-6.71-8.91-2.6-1.53-5.11-3.66-5.78-4.9a5.73,5.73,0,0,1,.25-5.36c1-1.47,1-1.43-2.25-3.38C40.48,68,40.33,68,38.91,70.76a10.19,10.19,0,0,0-.39,8.51A9.76,9.76,0,0,0,41.59,84a18.73,18.73,0,0,0,4.46,3.26c4.41,2.12,6.57,4.88,5.35,6.83a5.54,5.54,0,0,0-.51,2.58c0,2.91,1.32,3.32,3.61,1.17Zm-5-2.21c0-2.92-.35-4.15-1.23-4.14-.47,0-.28,4.76.22,5.24.75.72,1,.45,1-1.1Zm-2.32-3.32c-.16-.59-.18-.59-.42,0a1.82,1.82,0,0,0,0,1.24c.27.58.29.58.42,0a3.45,3.45,0,0,0,0-1.24Zm9.07-8.67a9.49,9.49,0,0,0,4.09-7.87,6.94,6.94,0,0,0-1-4.78,12.65,12.65,0,0,0-2-2.91,66.33,66.33,0,0,0-7.81-5.1c-.69-.33-2.26-1.24-3.5-2-1.93-1.22-2.35-1.68-3-3.28-1.21-3-1-5.15.66-7.06,1-1.09.61-1.65-1.74-2.78l-2-1-1.22,1.43c-1.88,2.24-2.5,4.09-2.44,7.38a9.22,9.22,0,0,0,1.18,5.08,16.55,16.55,0,0,0,6.72,6.71c4.48,2.51,8.12,5,8.77,6a5.59,5.59,0,0,1,.72,2.42,7.35,7.35,0,0,1-1.84,4.52c-.92.79-.59,1.7,1,2.78,1.82,1.22,2.1,1.26,3.4.43Zm-6.41-5.28c0-4.79,0-4.89-1.17-5.47l-1.07-.52L47.66,76c.06,3.36.15,3.78.86,4.42.44.39.91.59,1,.43a7.94,7.94,0,0,0,.26-2.57Zm2.24-1.17c0-1.93-.69-1.69-.77.26-.06,1.37,0,1.67.33,1.34a2.91,2.91,0,0,0,.44-1.6Zm-5.41-2c-.53-.5-.9,1-.55,2.14.27.92.29.91.6-.42.21-.91.19-1.48-.05-1.72Zm11-11.65a10.54,10.54,0,0,0,4.24-9.12,7.77,7.77,0,0,0-.74-3.68C60.49,49.35,57.41,46,56.91,46a18.79,18.79,0,0,1-2.55-1.34A35.59,35.59,0,0,0,47.85,42c-4.77-1.42-7.94-3.08-9.55-5A5,5,0,0,1,37,33.59c-.21-2.23.06-2.59,1.1-1.48,1.45,1.55,5,1,6.49-.94.79-1,.7-1.78-.25-2.16a8.53,8.53,0,0,0-8,1,6.57,6.57,0,0,0-2,8.82c1.64,3,3.91,4.68,11.63,8.33,6.5,3.07,7.67,3.79,8.69,5.38,1.41,2.18.62,5.62-1.82,7.93-1.36,1.28-1.48,1.83-.57,2.61a8.52,8.52,0,0,0,3.26,1.61,6.89,6.89,0,0,0,2.14-1.26ZM50.3,57c.17-4.62.16-4.67-.68-5.29-1.09-.81-2.09-1.11-2.41-.73a26,26,0,0,0,0,5c.29,4.55.32,4.71,1.19,5.16,1.64.86,1.68.76,1.86-4.15Zm2.86,1.67a3.54,3.54,0,0,0,.12-4.07c-.41-.63-.9-1.05-1.09-.93-.45.29-.35,5.84.11,5.84.19,0,.57-.38.86-.84ZM46.22,55.9c-.06-2.71-.17-3.36-.59-3.35-.6,0-1.05.8-1.36,2.4a4.29,4.29,0,0,0,.52,2.73c1.14,2.46,1.5,2,1.43-1.78ZM58.14,44.12c3.33-1.81,6.13-6,6.35-9.46.12-2,0-2.22-1-3.52a7.34,7.34,0,0,0-6.22-3c-2.35,0-4.2.75-4.37,1.7a3.07,3.07,0,0,0,1,1.72c.92,1,1.33,1.15,3.16,1.25s2.23,0,3.19-.83a5.48,5.48,0,0,1,1.3-.95c.3,0-.11,2.85-.53,3.73a14.23,14.23,0,0,1-7.32,6.32c-1.8.62-1.57,1.29.86,2.51,2.19,1.1,2.56,1.16,3.66.56ZM50.59,41c.12-1.3.2-3.77.41-12.14.13-5.07.29-9.4.36-9.64s.12-2.3.12-4.6l0-4.18L49,10.28a14.83,14.83,0,0,0-2.54-.09c-.06.06-.05,6.82,0,15,.1,11.69.22,15,.57,15.17a11.47,11.47,0,0,0,3,1.07.46.46,0,0,0,.49-.4Zm3.92-1.38c1.6-.77,4.09-3,4.08-3.61a.49.49,0,0,0-.54-.38c-.29,0-.5-.17-.45-.4s-.48-.54-1.15-.71a7.71,7.71,0,0,1-2.51-1.39l-1.27-1.08-.07,2.24a9.21,9.21,0,0,0,.12,2.41,4.4,4.4,0,0,0,1.78-.41c2.18-.79,2-.24-.23.86-1.79.86-2.29,1.59-1.85,2.68.26.65.33.64,2.09-.21ZM45.81,39c-.26-.64-4.58-3-5.43-3-.62,0-.57.13.36,1.07,2.21,2.22,5.73,3.57,5.07,2Zm-.24-2.33c.24-1.07.26-4.34,0-4.33a5.7,5.7,0,0,0-1.33.87,12.18,12.18,0,0,1-2.32,1.39l-1.2.51,2.12,1c2.61,1.28,2.53,1.27,2.71.51ZM66.82,29a23.39,23.39,0,0,0,2.06-2.52c.56-.9.55-.94-1.18-2.73a22.16,22.16,0,0,0-2-1.94,5.67,5.67,0,0,0-1.85,1.33c-2.34,2.14-3.8,2.76-6.67,2.83a25.33,25.33,0,0,1-3.36-.09c-.81-.15-.89-.06-.87,1.07,0,1.37,0,1.36,2.81.63A8.82,8.82,0,0,1,63,29.42a5.14,5.14,0,0,0,1.85,1.15,5.86,5.86,0,0,0,2-1.61Zm-31.41.63a8.59,8.59,0,0,1,2.23-1.33,6.78,6.78,0,0,1,4-.66,11.3,11.3,0,0,1,2.9.51c.83.43,1.11.15,1.09-1.08l0-1-2.92.07a9.64,9.64,0,0,1-4.57-.65,13.7,13.7,0,0,1-4.86-4.41c-.38-.62-.52-.54-2,1.12a8.06,8.06,0,0,0-1.6,2.26c0,1,1.53,3.22,3,4.41,1.65,1.36,2.15,1.49,2.76.73Zm39.4-4.72c.84-.35.67-.73-.69-1.54a13,13,0,0,1-2.92-3.16c-1.5-2.16-1.81-2.42-2.83-2.4-2.48,0-2.57,1.54-.24,3.94a9.25,9.25,0,0,0,4.94,3.07c.58.13,1.09.26,1.12.28a2.27,2.27,0,0,0,.62-.19Zm-30.39-.82c.95-.21,1.16-1.08,1.1-4.69l-.06-2.92-2.11.27L41.23,17,39.61,15.4c-2-1.94-2.14-3-.49-4.4a6.09,6.09,0,0,0,2.25-5A3.71,3.71,0,0,0,40,2.76C38.19.84,35.87,0,32.55.19c-2.17.09-2.92.32-5.46,1.64-1.62.85-3.83,2.16-4.91,2.91L17.29,8.15A89.87,89.87,0,0,1,1.4,17.42L0,18.08l1,.5a9.2,9.2,0,0,0,7,0C12.18,17,23.16,9.79,24.17,8c.83-1.46,1.28-1.1,1.32,1.06a8.12,8.12,0,0,0,8.2,7.59c.64,0,1.16.14,1.16.34a.37.37,0,0,1-.39.36c-.64,0-.08,2.66.83,3.88a9,9,0,0,0,5.13,3.07,8.51,8.51,0,0,0,4-.25Zm38.72-.54c0-.19-.45-.6-1-.91a29.16,29.16,0,0,1-5.68-4.07c-3-2.85-2.84-2.79-4.06-2-.59.37-1.07.93-1.06,1.24,0,.91,4.12,4.45,6.2,5.35,1.92.83,5.61,1.12,5.6.43Zm-55.93,0a17.88,17.88,0,0,0,2.9-2.19c2.68-2.5,2.77-3.31.41-3.7-1.29-.22-1.4-.16-3.67,2.28A33.43,33.43,0,0,1,23.55,23c-1.11.75-1.21,1.16-.33,1.38a6.73,6.73,0,0,0,4-.92Zm32,.08a7.87,7.87,0,0,0,4.9-4.48c.46-1.29.48-1.7.12-2.13s-.4-.53-.33-.54l2.84-.14C69.17,16.17,69.64,16,71,15a7.32,7.32,0,0,0,2.94-7.26c-.3-1.21.88-.44,1.44.94s3.45,3.93,9.33,8c4.77,3.28,10.53,4.56,13,2.89,1.31-.9,1.19-1.46-.42-1.91-3.47-1-10.15-4.87-17.54-10.24C70.2.47,66.91-.8,61.54.4c-1.12.25-3.26,2.3-3.79,3.65a6.91,6.91,0,0,0,1.88,7.46L61,12.85,60.2,14a5.19,5.19,0,0,1-6.32,2.46l-1-.28L53,19.78,53,23.35l1.16.31a9.41,9.41,0,0,0,5-.09Zm29.7-1.1c.6-.24.76-1.21.2-1.2s-7.82-4.82-10.38-7c-2.74-2.36-3.4-2.67-3.75-1.7-.52,1.43-.14,2.35,1.72,4.14,4.33,4.16,9.82,6.76,12.21,5.79Zm-67.78-.08a40.57,40.57,0,0,0,4.29-2.94l2.71-2.11L27,16.19A5.13,5.13,0,0,0,25.54,15a11.77,11.77,0,0,0-2.11,1.72,35.25,35.25,0,0,1-6.81,5.14c-1.79,1-1.88,1.4-.33,1.56a7.71,7.71,0,0,0,4.86-1.07ZM15.27,20.6c1.88-1,9.62-6.06,9.61-6.36a11.42,11.42,0,0,0-1.47-3.41c-.15,0-2.29,1.58-4.77,3.51-3.9,3.05-8.73,6-9.91,6-.84,0-.29.71.8,1a7.25,7.25,0,0,0,5.74-.72Z"
     id="path1" />
  <path
     style="fill:#cccccc;stroke-width:0.149788"
     d="m 43.767941,110.28163 c -0.999064,-1.41802 -1.423558,-3.05902 -1.352672,-5.22914 0.04716,-1.4437 0.07355,-1.55143 0.513808,-2.09704 0.638302,-0.79105 1.079117,-1.01661 1.743258,-0.89202 1.265191,0.23736 1.440076,0.8635 0.552217,1.97713 -0.889901,1.11619 -1.089307,1.67046 -1.154073,3.20786 -0.03297,0.78264 0.0021,1.87797 0.07786,2.43406 0.07579,0.55609 0.08651,1.01107 0.02381,1.01107 -0.0627,0 -0.244591,-0.18536 -0.40421,-0.41192 z"
     id="path2" />
  <path
     style="fill:#cccccc;stroke-width:0.149788"
     d="m 51.618923,98.833774 c -0.835786,-0.727486 -0.871256,-3.044532 -0.07419,-4.846432 0.565644,-1.278733 0.228973,-2.363906 -1.19938,-3.865889 -0.976739,-1.027089 -1.883113,-1.666122 -4.060771,-2.863022 -2.177263,-1.196682 -3.298355,-2.025397 -4.867599,-3.598142 -1.582734,-1.586264 -2.118988,-2.441928 -2.866604,-4.574048 -0.694444,-1.98048 -0.853057,-4.125111 -0.43493,-5.880772 0.429539,-1.803582 1.84577,-4.480715 2.454564,-4.639918 0.181035,-0.04734 0.697196,0.100993 1.232746,0.354268 1.251428,0.591832 3.420088,2.020887 3.53966,2.332486 0.05846,0.152344 -0.08635,0.585695 -0.363029,1.086359 -1.252928,2.267262 -1.225031,4.628564 0.07491,6.340275 0.801811,1.055797 2.935281,2.771506 5.349465,4.301974 2.358413,1.495111 3.654928,2.540536 4.638653,3.740307 2.768684,3.376743 2.670114,7.651376 -0.245133,10.630614 -1.609679,1.645013 -2.509172,2.06441 -3.178357,1.48194 z"
     id="path3" />
  <path
     style="fill:#cccccc;stroke-width:0.149788"
     d="m 54.522938,64.286541 c -0.926505,-0.370683 -2.343857,-1.29658 -2.536873,-1.657232 -0.308728,-0.576864 -0.157139,-0.916723 0.940635,-2.108888 3.270394,-3.551599 3.34722,-7.359846 0.195683,-9.699966 -0.510255,-0.378882 -3.259754,-1.835467 -6.163753,-3.265334 -8.882511,-4.373557 -10.659358,-5.590656 -12.3523,-8.461033 -0.83302,-1.412382 -1.1017,-2.4691 -1.024386,-4.028907 0.05319,-1.073213 0.147522,-1.462718 0.565822,-2.336439 1.339526,-2.79792 4.885154,-4.585179 8.18557,-4.126134 2.011921,0.279833 2.924961,0.883098 2.606058,1.721877 -0.587589,1.545476 -2.857211,2.778208 -4.754517,2.582389 -0.82929,-0.08559 -1.841515,-0.575153 -2.349284,-1.136232 -0.400238,-0.442257 -0.809881,-0.403937 -0.933172,0.08729 -0.05555,0.221316 -0.03527,1.051216 0.04506,1.844222 0.186752,1.843596 0.562364,2.636734 1.844439,3.894703 1.743475,1.710695 3.903014,2.783011 9.065438,4.501431 2.681934,0.892737 3.866929,1.385029 6.366003,2.644683 2.998585,1.511429 3.099404,1.577455 4.295276,2.812883 2.497699,2.580318 3.165337,3.899731 3.301505,6.524582 0.211383,4.074722 -1.507601,7.567549 -4.770627,9.693492 -1.179909,0.768741 -1.648671,0.863847 -2.526578,0.512609 z"
     id="path4" />
  <path
     style="fill:#cccccc;stroke-width:0.149788"
     d="m 42.912987,36.056653 -1.948606,-0.936372 1.274559,-0.62253 c 0.701007,-0.342392 1.693899,-0.936219 2.206426,-1.319615 0.527206,-0.394378 1.007092,-0.650592 1.1051,-0.59002 0.122982,0.07601 0.151262,0.655061 0.09749,1.996198 -0.08214,2.048821 -0.164112,2.414632 -0.540262,2.411052 -0.135357,-0.0013 -1.122976,-0.423709 -2.19471,-0.938713 z"
     id="path5" />
  <path
     style="fill:#cccccc;stroke-width:0.149788"
     d="m 44.786699,39.553826 c -0.547293,-0.167082 -1.624811,-0.73306 -2.396612,-1.258846 -0.818726,-0.557753 -2.246825,-1.884053 -2.246825,-2.086665 0,-0.618139 4.863068,1.868379 5.472141,2.797942 0.399122,0.609137 0.07484,0.82341 -0.828704,0.547569 z"
     id="path6" />
  <path
     style="fill:#cccccc;stroke-width:0.149788"
     d="m 46.503456,111.3431 c -0.582123,-1.22839 -0.814189,-2.20392 -0.816249,-3.43122 -0.0014,-0.86064 0.07541,-1.21151 0.41014,-1.87236 0.845931,-1.67011 1.130146,-0.93683 1.14782,2.96142 0.01521,3.35567 -0.0956,3.70559 -0.741711,2.34216 z"
     id="path7" />
  <path
     style="fill:#008080;stroke-width:0.149788"
     d="m 50.572004,111.66125 c -0.159667,-0.41608 -0.102862,-4.81782 0.06794,-5.26436 l 0.161286,-0.42167 0.353374,0.40911 c 0.438203,0.50732 0.567322,1.32395 0.499844,3.16133 -0.04235,1.15302 -0.111508,1.50534 -0.361069,1.83931 -0.380947,0.5098 -0.599625,0.59355 -0.721372,0.27628 z"
     id="path8" />
  <path
     style="fill:#008080;stroke-width:0.149788"
     d="m 52.732191,111.29265 c -0.0037,-0.0412 0.09322,-0.54676 0.215369,-1.12342 0.122145,-0.57665 0.223252,-1.75983 0.224683,-2.62927 0.0023,-1.42189 -0.03825,-1.66279 -0.403707,-2.39617 -0.22347,-0.44845 -0.848393,-1.25744 -1.388719,-1.79777 -0.84294,-0.84294 -1.293066,-1.13446 -3.170601,-2.05341 -2.431311,-1.18999 -4.166972,-2.407956 -5.44674,-3.822146 -1.707341,-1.886672 -2.256131,-3.401133 -2.12853,-5.873974 0.08604,-1.667377 0.389562,-2.711517 0.937992,-3.22674 0.329939,-0.309961 0.418925,-0.326361 0.928553,-0.171128 0.310004,0.09443 1.102881,0.497173 1.761949,0.894991 l 1.198307,0.723305 0.0024,2.012724 c 0.0021,1.797868 0.03942,2.088482 0.349515,2.722419 0.517675,1.058293 2.244246,2.812759 4.280016,4.349165 5.235099,3.950954 6.345116,6.508174 4.409161,10.157674 -0.382851,0.72172 -1.750422,2.44798 -1.769608,2.23375 z"
     id="path9" />
  <path
     style="fill:#008080;stroke-width:0.149788"
     d="m 53.296193,83.303095 c -1.709647,-1.11607 -2.18703,-1.861509 -1.631596,-2.547758 1.382579,-1.708207 1.986562,-3.158005 2.004945,-4.812673 0.01625,-1.462306 -0.400001,-2.448613 -1.420656,-3.366271 -1.022013,-0.918877 -3.797221,-2.771336 -6.638351,-4.431119 -1.318137,-0.770052 -2.884318,-1.762464 -3.480402,-2.205358 -2.217342,-1.647502 -4.410077,-4.484685 -5.256389,-6.801249 -0.379093,-1.03767 -0.400122,-1.238506 -0.397031,-3.791893 0.0031,-2.524565 0.02808,-2.764612 0.393061,-3.771092 0.419816,-1.157683 1.369258,-2.668071 2.431526,-3.868111 l 0.662958,-0.748941 1.678007,0.823835 c 1.935283,0.950149 2.658383,1.602201 2.37478,2.141451 -0.09547,0.181531 -0.335814,0.525028 -0.534097,0.763327 -1.535784,1.845727 -1.657167,4.579643 -0.329913,7.430614 0.760545,1.633667 1.201133,1.981119 5.984749,4.719624 5.216963,2.986587 8.011246,4.968138 9.037164,6.408658 1.845483,2.591291 2.321654,4.192586 2.06155,6.932699 -0.254019,2.675997 -1.106245,4.582444 -2.803941,6.272472 -0.95399,0.949683 -2.008966,1.579922 -2.644678,1.579922 -0.206961,0 -0.878219,-0.327662 -1.491686,-0.728137 z"
     id="path10" />
  <path
     style="fill:#008080;stroke-width:0.149788"
     d="m 56.320398,44.278153 c -1.863151,-0.70748 -3.835854,-1.971747 -3.710911,-2.378252 0.03108,-0.101124 0.865025,-0.58829 1.853209,-1.082591 2.225276,-1.113109 2.995759,-1.646075 4.329209,-2.994642 1.938587,-1.960563 2.66342,-3.408449 2.868786,-5.730526 0.119744,-1.353942 -0.0041,-1.385621 -1.312205,-0.335765 -1.224273,0.982544 -1.768064,1.124033 -3.61583,0.940801 -1.636944,-0.162325 -2.063521,-0.377189 -3.016015,-1.519141 -0.603829,-0.723936 -0.808364,-1.294246 -0.593717,-1.65548 0.265286,-0.446455 1.737503,-1.054088 2.961744,-1.222408 3.304242,-0.454301 6.286405,0.972895 7.94137,3.800559 0.405332,0.692547 0.418586,0.778399 0.346891,2.246824 -0.08942,1.831353 -0.61053,3.403117 -1.71674,5.177958 -1.300841,2.087114 -4.155621,4.681232 -5.369905,4.879592 -0.242895,0.03968 -0.677544,-0.01744 -0.965886,-0.126929 z"
     id="path11" />
  <path
     style="fill:#008080;stroke-width:0.149788"
     d="m 52.454659,39.65645 c -0.146852,-0.551626 0.01311,-1.166552 0.392868,-1.510225 0.138968,-0.125764 0.825554,-0.542806 1.525746,-0.92676 0.700193,-0.383954 1.40339,-0.824212 1.56266,-0.978353 0.49046,-0.474663 -0.05057,-0.506839 -1.295746,-0.07706 -0.612367,0.211361 -1.29369,0.384292 -1.514051,0.384292 -0.368016,0 -0.402468,-0.05186 -0.422885,-0.6366 -0.03174,-0.909044 0.04523,-3.472186 0.10624,-3.537773 0.02824,-0.03036 0.408465,0.248011 0.844948,0.618595 0.806605,0.684825 2.128622,1.417489 3.16206,1.752417 0.364803,0.118229 0.620393,0.314979 0.707787,0.544843 0.07826,0.205832 0.258722,0.359789 0.421735,0.359789 0.156719,0 0.367235,0.09916 0.467815,0.220346 0.151118,0.182086 0.0337,0.376741 -0.676251,1.121046 -1.134749,1.189666 -2.155858,1.960394 -3.46464,2.615091 -1.359265,0.67995 -1.648545,0.687961 -1.818286,0.05035 z"
     id="path12" />
  <path
     style="fill:#008080;stroke-width:0.149788"
     d="m 44.990799,57.881063 c -0.39372,-0.796638 -0.579908,-1.394065 -0.623869,-2.001829 -0.07816,-1.080561 0.29755,-2.446 0.815574,-2.964024 0.346189,-0.346189 0.398751,-0.3581 0.617026,-0.139826 0.192772,0.192773 0.251551,0.711877 0.30603,2.702697 0.07287,2.66272 -0.01223,3.538506 -0.343842,3.538506 -0.115342,0 -0.462255,-0.510986 -0.770919,-1.135524 z"
     id="path13" />
  <path
     style="fill:#008080;stroke-width:0.149788"
     d="m 46.233669,77.420177 c -0.1384,-0.517041 -0.115343,-1.818741 0.03646,-2.058409 0.07467,-0.117891 0.210622,-0.157061 0.316981,-0.09133 0.207194,0.128052 0.112301,1.840974 -0.12553,2.265953 -0.111855,0.199874 -0.148271,0.181305 -0.227911,-0.116217 z"
     id="path14" />
  <path
     style="fill:#008080;stroke-width:0.149788"
     d=""
     id="path15" />
  <path
     style="fill:#008080;stroke-width:0.149788"
     d=""
     id="path16" />
  <path
     style="fill:#008080;stroke-width:0.149788"
     d="m 46.813222,93.338049 c -0.131163,-0.59718 0.04494,-1.499717 0.23429,-1.200745 0.169454,0.267559 0.169454,1.195315 0,1.462874 -0.09652,0.152403 -0.158466,0.0831 -0.23429,-0.262129 z"
     id="path17" />
  <path
     style="fill:#008080;stroke-width:0.149788"
     d=""
     id="path18" />
  <path
     style="fill:#008080;stroke-width:0.149788"
     d="m 51.404971,77.54729 c 0.0697,-1.327901 0.211383,-1.791358 0.438208,-1.433382 0.309655,0.488699 -0.01893,2.674734 -0.402041,2.674734 -0.05573,0 -0.072,-0.558609 -0.03617,-1.241352 z"
     id="path19" />
  <path
     style="fill:#008080;stroke-width:0.149788"
     d=""
     id="path20" />
  <path
     style="fill:#cccccc;stroke-width:0.149788"
     d="m 46.29511,76.50437 c -0.0062,-0.681066 0.05138,-1.160859 0.139261,-1.160859 0.181468,0 0.181468,1.599841 0,2.022142 -0.08735,0.203284 -0.132117,-0.07356 -0.139261,-0.861283 z"
     id="path21" />
  <path
     style="fill:#cccccc;stroke-width:0.149788"
     d="m 52.206762,59.210289 c -0.167067,-0.421876 -0.28315,-3.641297 -0.165304,-4.584501 0.05853,-0.468485 0.172197,-0.851791 0.252586,-0.851791 0.199953,0 0.858053,0.726042 1.154055,1.2732 0.156781,0.289808 0.244502,0.821666 0.247051,1.497883 0.0033,0.868564 -0.06408,1.164235 -0.39244,1.722748 -0.218017,0.370826 -0.529861,0.795016 -0.692988,0.942644 -0.285121,0.25803 -0.300708,0.258023 -0.40296,-1.83e-4 z"
     id="path22" />
  <path
     style="fill:#5599ff;stroke-width:0.149788"
     d="M 47.849863,8.6343461 C 47.140873,8.3138016 45.518609,6.7323656 45.215646,6.0664258 44.846833,5.2557422 44.85087,3.7167293 45.223896,2.9208717 c 0.324577,-0.6924913 1.361983,-1.7880913 2.010817,-2.12361674 0.623716,-0.32253572 2.01807,-0.42031654 2.917349,-0.20458273 2.245129,0.53859817 3.668849,2.71550257 3.18627,4.87189107 -0.247943,1.1079278 -1.257041,2.4762264 -2.132419,2.891481 -0.858658,0.4073232 -2.727838,0.5623258 -3.35605,0.2783018 z"
     id="path23" />
  <path
     style="fill:#5599ff;stroke-width:0.200763"
     d="m 48.537783,80.203641 c -0.276777,-0.276777 -0.559133,-0.841424 -0.627457,-1.254771 -0.187853,-1.136472 -0.153112,-6.272532 0.04243,-6.272532 0.09409,0 0.475919,0.205436 0.848508,0.456523 0.881617,0.594122 1.048481,1.472966 0.898854,4.734115 -0.143274,3.122665 -0.220694,3.278305 -1.162334,2.336665 z"
     id="path24" />
  <path
     style="fill:#5599ff;stroke-width:0.200763"
     d="m 48.453321,61.045915 c -0.744001,-0.453662 -0.807329,-0.685882 -1.071396,-3.928737 -0.223728,-2.747476 -0.259739,-5.339079 -0.08067,-5.805718 0.242329,-0.631499 1.540633,-0.230342 2.468262,0.762656 l 0.482109,0.516082 -0.111247,3.996884 c -0.137352,4.934776 -0.28154,5.315859 -1.687055,4.458833 z"
     id="path25" />
  <path
     style="fill:#5599ff;stroke-width:0.200763"
     d="m 49.086643,41.076422 c -1.51102,-0.477874 -2.05143,-0.86473 -2.191857,-1.569059 -0.07234,-0.362807 -0.184821,-7.110757 -0.249966,-14.995441 l -0.118447,-14.33579 1.380517,0.130354 c 0.759284,0.0717 1.85482,0.130997 2.434524,0.131782 l 1.054008,0.0014 v 3.521118 c 0,1.936615 -0.08702,5.030881 -0.19337,6.876146 -0.106354,1.845264 -0.294375,7.103863 -0.417826,11.685775 -0.207874,7.715344 -0.308485,8.870129 -0.76854,8.821088 -0.06929,-0.0074 -0.487364,-0.127717 -0.929043,-0.2674 z"
     id="path26" />
  <path
     style="fill:#5599ff;stroke-width:0.200763"
     d="m 39.18235,23.799226 c -2.604118,-0.967161 -4.479629,-3.018479 -4.782927,-5.23127 -0.105067,-0.76655 -0.06601,-0.986811 0.201539,-1.136539 0.330635,-0.185032 0.467654,-0.766684 0.181291,-0.769581 -0.08281,-8.38e-4 -0.892259,-0.08681 -1.798765,-0.191048 -3.979445,-0.457592 -6.785501,-3.169002 -7.310776,-7.0641932 -0.276767,-2.0523551 -0.356197,-2.379877 -0.577169,-2.379877 -0.106145,0 -0.849759,0.6614898 -1.652473,1.4699775 C 20.418068,11.543453 10.542982,17.718147 7.0267178,18.761512 5.4762779,19.221567 3.1289768,19.187915 1.6984439,18.685123 1.0645783,18.462338 0.50751176,18.241609 0.46051832,18.194616 0.41352485,18.147622 2.3911704,17.079951 4.8552861,15.822012 10.103469,13.142799 12.165385,11.882103 18.269466,7.6203144 23.526818,3.9497018 25.021919,3.0189249 27.93404,1.603625 c 2.57837,-1.25309534 4.489448,-1.58601057 6.978922,-1.21574739 2.04237,0.30376449 3.386675,0.96236099 4.813111,2.35801779 1.377664,1.3479382 1.744485,2.2990105 1.526095,3.9567745 -0.205616,1.5607826 -0.790751,2.6870363 -2.109561,4.0604411 -1.055889,1.0996 -1.198331,1.343316 -1.198331,2.05034 0,0.866034 0.729074,1.949854 2.372252,3.526519 l 0.813748,0.780809 1.783383,-0.22871 c 0.980862,-0.12579 1.935365,-0.22871 2.121121,-0.22871 0.301842,0 0.337425,0.325417 0.334781,3.061642 -0.002,2.046828 -0.08621,3.226167 -0.25412,3.558004 -0.537498,1.062253 -3.717826,1.338966 -5.933091,0.516221 z"
     id="path27" />
  <path
     style="fill:#5599ff;stroke-width:0.200763"
     d="m 22.931167,24.13661 c -0.187265,-0.128651 0.11236,-0.50493 1.104198,-1.386693 0.74866,-0.665572 2.230937,-2.081469 3.293949,-3.146436 2.039995,-2.043749 2.205503,-2.122963 3.616705,-1.730985 1.635746,0.454347 1.4266,1.183052 -0.975378,3.398406 -1.919166,1.770054 -3.89895,2.812322 -5.599603,2.947941 -0.650578,0.05188 -1.29852,0.01487 -1.439871,-0.08223 z"
     id="path28" />
  <path
     style="fill:#5599ff;stroke-width:0.200763"
     d="m 15.473589,23.114027 c -0.220812,-0.149646 0.07115,-0.416047 1.27587,-1.164154 2.211653,-1.373396 4.845882,-3.332614 6.137565,-4.564836 1.480068,-1.411936 2.386303,-2.127021 2.695598,-2.127021 0.140596,0 0.723743,0.474303 1.29588,1.054007 l 1.040251,1.054008 -0.741344,0.60229 c -2.339062,1.900325 -4.794565,3.609588 -6.251366,4.351545 -1.507655,0.767855 -1.820572,0.851911 -3.412977,0.916788 -0.964228,0.03928 -1.881993,-0.0159 -2.039477,-0.122627 z"
     id="path29" />
  <path
     style="fill:#5599ff;stroke-width:0.200763"
     d="M 9.561314,21.186739 C 8.5938046,20.841871 8.1802299,20.477863 8.7559112,20.477863 c 0.5552255,0 3.4658258,-1.509468 5.4030348,-2.802072 0.880538,-0.587539 3.298269,-2.333188 5.372737,-3.879219 4.271965,-3.183753 3.935079,-3.120438 4.775022,-0.897439 0.372712,0.986422 0.396332,1.202525 0.162263,1.484562 -0.698724,0.841911 -9.033574,6.113541 -10.617594,6.715422 -1.18881,0.451712 -3.155909,0.491889 -4.29006,0.08762 z"
     id="path30" />
  <path
     style="fill:#5599ff;stroke-width:0.200763"
     d="m 33.086288,29.015504 c -1.246286,-0.978389 -2.583998,-2.620387 -3.056938,-3.752291 -0.28873,-0.691029 -0.278512,-0.750103 0.276236,-1.597071 1.10049,-1.680185 2.820369,-3.267296 2.820369,-2.602647 0,0.101257 0.667762,0.891763 1.483916,1.756679 2.684903,2.845318 4.618983,3.613087 8.604443,3.415697 l 2.35897,-0.116834 v 0.705971 c 0,0.388283 -0.09121,0.876403 -0.202696,1.084711 -0.192575,0.359829 -0.245204,0.362645 -1.054008,0.05639 -0.586798,-0.222194 -1.568678,-0.32838 -3.16009,-0.341748 -2.045874,-0.01719 -2.433239,0.03677 -3.401764,0.473814 -0.601143,0.271265 -1.482774,0.79074 -1.95918,1.154389 -0.476407,0.36365 -1.023514,0.661125 -1.215793,0.661055 -0.19228,-6.9e-5 -0.864339,-0.40422 -1.493465,-0.898111 z"
     id="path31" />
  <path
     style="fill:#5599ff;stroke-width:0.200763"
     d="m 63.185713,29.429246 c -2.314596,-1.748157 -4.746373,-2.399098 -7.22318,-1.933508 -0.800404,0.150459 -1.771482,0.281758 -2.157951,0.291775 -0.701652,0.01819 -0.702672,0.0169 -0.702672,-0.885222 v -0.903435 l 2.409161,0.06323 c 3.96559,0.104086 5.53303,-0.401567 8.209247,-2.648284 0.871231,-0.731409 1.720834,-1.329835 1.888006,-1.329835 0.410826,0 3.454274,3.21301 3.454274,3.646725 0,0.427875 -2.17699,3.159385 -3.171041,3.978767 -0.404222,0.333193 -0.917637,0.603399 -1.140923,0.600457 -0.223287,-0.0029 -0.927501,-0.399245 -1.564921,-0.880673 z"
     id="path32" />
  <path
     style="fill:#5599ff;stroke-width:0.200763"
     d="m 54.2563,23.558099 -1.254771,-0.297302 v -3.479834 -3.479834 l 0.953626,0.296264 c 2.294728,0.712906 4.689973,-0.16037 6.197005,-2.259351 0.469146,-0.653423 0.859048,-1.270712 0.866448,-1.371754 0.0074,-0.101042 -0.531316,-0.751035 -1.197148,-1.44443 -1.650505,-1.71883 -2.284301,-3.1287439 -2.291436,-5.0974303 -0.0069,-1.8959982 0.448202,-2.953778 1.874975,-4.3582231 1.507699,-1.48410507 2.129018,-1.72185782 4.772397,-1.82619742 1.907005,-0.0752734 2.460524,-0.0220863 3.705475,0.35605586 2.826694,0.85858196 5.179893,2.24126496 11.881807,6.98146206 7.290319,5.1563699 12.459257,8.2557049 16.200211,9.7137709 2.605463,1.015499 2.735322,1.109043 2.263653,1.630609 -1.659115,1.83463 -5.669403,1.612744 -10.280616,-0.568819 C 83.736699,16.360757 76.511477,10.638492 75.366863,8.3890791 74.960018,7.5895422 74.400833,7.0267178 74.013312,7.0267178 c -0.05212,0 -0.126433,0.8808493 -0.165134,1.9574428 -0.08505,2.3659924 -0.606659,3.6693424 -2.043528,5.1062104 -1.502635,1.502635 -2.689986,1.97468 -5.315351,2.11318 -2.601326,0.137232 -2.814488,0.217628 -2.371119,0.894294 0.56297,0.859202 -0.110112,2.590454 -1.645151,4.231536 -1.207194,1.290587 -2.285708,1.904024 -3.977899,2.262543 -1.690976,0.358264 -2.615129,0.35089 -4.23883,-0.03383 z"
     id="path33" />
  <path
     style="fill:#5599ff;stroke-width:0.200763"
     d="m 72.385099,24.470398 c -1.623577,-0.558296 -3.109016,-1.583569 -4.320652,-2.982178 -1.326913,-1.531675 -1.702943,-2.396958 -1.294854,-2.979586 0.382604,-0.546244 1.517233,-0.761266 2.301925,-0.436236 0.375337,0.155469 1.052945,0.868216 1.787346,1.880032 1.220504,1.68154 2.616909,3.128777 3.802087,3.940489 0.636443,0.435891 0.656339,0.482529 0.312964,0.733611 -0.503322,0.368038 -1.183836,0.326996 -2.588816,-0.156132 z"
     id="path34" />
  <path
     style="fill:#5599ff;stroke-width:0.200763"
     d="m 86.012581,22.385146 c -2.610679,-0.704212 -6.187632,-2.887272 -8.878542,-5.418688 -1.811614,-1.704236 -2.350465,-2.613381 -2.178186,-3.675016 0.245464,-1.512617 0.5163,-1.429397 3.743386,1.150244 2.515307,2.010665 8.935352,6.394869 9.997267,6.827065 0.771328,0.313928 0.787071,0.780134 0.03912,1.158553 -0.631351,0.319427 -1.428307,0.307089 -2.723048,-0.04216 z"
     id="path35" />
  <path
     style="fill:#5599ff;stroke-width:0.200763"
     d="m 79.703056,23.664835 c -0.607309,-0.09849 -1.672013,-0.45652 -2.366009,-0.79563 -2.222228,-1.085856 -5.974695,-4.395116 -5.827989,-5.139642 0.112639,-0.571641 1.491195,-1.531133 2.00794,-1.397551 0.255366,0.06601 1.367737,0.941835 2.471936,1.94627 1.104198,1.004435 2.95624,2.448794 4.115649,3.209687 3.143471,2.062986 3.096062,2.025075 2.781606,2.22433 -0.334326,0.211845 -1.710674,0.191322 -3.183133,-0.04746 z"
     id="path36" />
  <path
     style="fill:#5599ff;stroke-width:0.200763"
     d=""
     id="path37" />
  <path
     style="fill:#5599ff;stroke-width:0.200763"
     d="m 48.822435,96.790771 c -0.415228,-0.256626 -0.639227,-1.442553 -0.639227,-3.38429 0,-1.947791 0.15166,-2.225603 0.731706,-1.340342 0.242967,0.370815 0.36553,1.104781 0.431254,2.582563 0.08967,2.016215 -0.01758,2.454886 -0.523733,2.142069 z"
     id="path38" />
  <path
     style="fill:#5599ff;stroke-width:0.200763"
     d=""
     id="path39" />
  <path
     style="fill:#5599ff;stroke-width:0.200763"
     d="m 48.718788,117.86717 c -0.06815,-0.65203 -0.177096,-3.83664 -0.242101,-7.07691 -0.089,-4.43654 -0.06186,-5.8026 0.109899,-5.53182 0.228826,0.36074 0.578763,13.79424 0.359334,13.79424 -0.05677,0 -0.158982,-0.53348 -0.227132,-1.18551 z"
     id="path40" />
  <path
     style="fill:#ff0000;stroke-width:0.200763"
     d="M 47.210243,8.0298045 C 44.812554,6.2929267 44.382839,3.9073036 46.121098,1.9832584 c 0.961441,-1.06420067 1.624854,-1.3809683 2.892189,-1.3809683 1.976123,0 3.713289,1.3057656 4.174631,3.1379208 0.242149,0.9616587 0.146724,1.6064313 -0.397255,2.6842168 -0.763716,1.5131505 -1.967317,2.208397 -3.823145,2.208397 -0.709231,0 -1.118891,-0.1405775 -1.757275,-0.6030202 z"
     id="path41" />
  <path
     style="fill:#ff0000;stroke-width:0.0251215"
     d="M 48.434205,8.7520775 C 48.149456,8.7167308 47.930149,8.6559605 47.762464,8.5659369 47.028798,8.1720603 45.638936,6.8104821 45.269554,6.1237587 45.066819,5.7468519 44.961983,5.1862875 44.963182,4.4855724 c 0.0011,-0.639753 0.0955,-1.1666931 0.280381,-1.5650527 0.31861,-0.6864917 1.409918,-1.823653 2.040844,-2.12659379 0.612319,-0.29400672 1.936089,-0.38981549 2.791174,-0.20201319 1.707864,0.3750979 3.031723,1.75745628 3.295785,3.44141858 0.06213,0.3961996 0.04071,1.0530179 -0.04624,1.418029 -0.07925,0.3326704 -0.137162,0.4892616 -0.3219,0.87034 -0.32541,0.6712584 -0.899978,1.3934079 -1.416274,1.780053 -0.407062,0.3048414 -0.963628,0.4898769 -1.817859,0.6043647 -0.283511,0.037997 -1.156809,0.068064 -1.334887,0.04596 z M 49.954055,8.568233 C 50.717248,8.434743 51.264843,8.1926557 51.786652,7.7580554 52.184373,7.4268051 52.521451,6.9816709 52.818011,6.3960757 53.383169,5.2801029 53.460942,4.5105954 53.115342,3.4542029 52.663684,2.0736215 51.428578,1.0056707 49.903812,0.67731107 49.545593,0.60016824 48.690899,0.57970992 48.289051,0.63865942 47.778739,0.71352015 47.342596,0.89298406 46.933647,1.1963801 46.657473,1.4012715 46.065813,2.0007888 45.840141,2.3044083 44.932023,3.526193 44.805099,4.8423642 45.47143,6.1278394 c 0.393754,0.7596219 1.093064,1.5011755 1.937819,2.0548782 0.388342,0.2545416 0.676035,0.3710957 1.070526,0.433706 0.251529,0.039921 1.135778,0.011017 1.47428,-0.048191 z"
     id="path42" />
  <path
     style="fill:#ff0000;stroke-width:0.0251215"
     d="M 48.182745,8.6936178 C 48.065166,8.6688013 47.88764,8.6075421 47.788242,8.5574861 47.185485,8.2539425 45.913048,7.0572044 45.418074,6.3283229 45.106691,5.8697906 44.982765,5.3423622 44.984773,4.4841834 c 0.0023,-0.9663817 0.160236,-1.4963817 0.632728,-2.1227647 0.476026,-0.6310678 1.19911,-1.3111927 1.621658,-1.52531423 0.62974,-0.3191131 1.92309,-0.42414482 2.825636,-0.22946711 1.618494,0.34910685 2.906109,1.62802734 3.258952,3.23694844 0.03827,0.1745119 0.04672,0.3191179 0.04625,0.7913265 -5.43e-4,0.5414402 -0.0048,0.5944857 -0.06745,0.843086 -0.142655,0.5659386 -0.437489,1.1535355 -0.864572,1.7230682 -0.196895,0.2625674 -0.654661,0.7331688 -0.864461,0.8887004 -0.570776,0.4231333 -1.576647,0.6557682 -2.812726,0.6505186 -0.249045,-0.00106 -0.43188,-0.015819 -0.57804,-0.046668 z m 1.444731,-0.078349 c 0.521024,-0.044939 1.082221,-0.193975 1.482167,-0.3936176 0.554705,-0.2768947 1.091323,-0.7738437 1.454145,-1.3466508 0.287285,-0.4535509 0.568809,-1.0950658 0.685389,-1.561808 0.06096,-0.2440769 0.06915,-0.3247249 0.07009,-0.6908405 0.0012,-0.4540237 -0.03962,-0.7035343 -0.190475,-1.165167 C 52.727441,2.2290042 51.710611,1.2397587 50.403544,0.80586683 49.999333,0.67168564 49.769921,0.62868629 49.393155,0.61648702 l -0.318352,-0.0103079 0.251215,0.0203577 c 1.535171,0.12440591 2.848254,0.97616258 3.526533,2.28755428 0.377145,0.7291765 0.530946,1.6113784 0.394048,2.2602583 C 53.112462,5.8101393 52.676693,6.710849 52.241397,7.2520462 51.483119,8.1947987 50.321537,8.659806 48.850089,8.609662 48.380777,8.593669 48.160471,8.5458385 47.831325,8.3884788 47.286568,8.1280387 46.538568,7.5220421 46.067438,6.9594547 44.816167,5.4652841 44.748955,3.80129 45.879198,2.2991425 46.086334,2.0238491 46.796817,1.3215955 47.027411,1.1642301 47.526717,0.82348519 47.989364,0.66969377 48.635177,0.62978315 l 0.314019,-0.019406 -0.251215,-0.00363 c -0.308149,-0.004452 -0.655578,0.0495769 -0.947321,0.14731977 -0.47431,0.15890815 -0.788012,0.36560808 -1.268344,0.83571748 -0.200692,0.1964214 -0.435619,0.4419149 -0.52206,0.5455409 -0.425379,0.5099499 -0.752812,1.1763662 -0.870183,1.7710641 -0.05259,0.2664846 -0.04537,0.9750692 0.01268,1.2428385 0.169147,0.7803344 0.578629,1.4964763 1.241146,2.170637 0.687812,0.6998999 1.393865,1.1551184 1.989826,1.2829133 0.198815,0.042633 0.869233,0.049105 1.293756,0.01249 z"
     id="path43" />
  <path
     style="fill:#ff0000;stroke-width:0.0251215"
     d="M 48.182569,8.6935822 C 48.064894,8.6687463 47.895324,8.6116854 47.805747,8.5667805 47.430594,8.3787166 46.935225,7.9754544 46.310692,7.3497088 45.460061,6.4974263 45.194277,6.0984902 45.070645,5.4884215 44.998818,5.1339891 44.959546,4.6110773 44.979186,4.2706509 c 0.05016,-0.8693412 0.20638,-1.3366159 0.638315,-1.9092322 0.483088,-0.6404295 1.201268,-1.3132631 1.635002,-1.53176586 0.323503,-0.16297157 0.760888,-0.25862983 1.405542,-0.30739924 0.472953,-0.0357799 1.036384,7.649e-5 1.434178,0.09127 1.627261,0.37304666 2.888018,1.6348023 3.233586,3.2361464 0.05766,0.2671862 0.06399,1.2157596 0.0099,1.4886436 -0.112893,0.5699176 -0.445075,1.2590593 -0.898107,1.8632011 -0.196599,0.2621745 -0.654465,0.7328259 -0.864124,0.8882522 -0.570776,0.4231333 -1.576647,0.6557682 -2.812726,0.6505186 -0.249151,-0.00106 -0.431874,-0.015817 -0.578216,-0.046703 z m 1.444907,-0.078314 c 0.524259,-0.045217 1.090165,-0.1979929 1.507288,-0.4069164 0.485224,-0.2430332 1.024709,-0.7329847 1.354124,-1.2297915 0.348197,-0.5251338 0.628933,-1.1407715 0.76151,-1.6699448 0.06047,-0.2413712 0.06803,-0.3181105 0.06757,-0.6862642 C 53.317406,4.1654424 53.277292,3.9175573 53.13097,3.4667637 52.731194,2.2351277 51.709702,1.2394107 50.399969,0.8046715 50.012332,0.67600311 49.786109,0.63203543 49.437342,0.61757899 l -0.287174,-0.0119034 0.237648,0.0231632 c 1.062457,0.10355571 2.013631,0.54863541 2.739246,1.28176661 0.72532,0.7328318 1.16469,1.7607175 1.164507,2.724307 -7.1e-5,0.3731701 -0.04297,0.6166086 -0.176958,1.0041845 C 53.005294,5.955307 52.732212,6.5242642 52.547584,6.8204808 51.878598,7.8937964 50.921229,8.4605796 49.552111,8.5938653 49.12796,8.6351573 48.504229,8.6109823 48.245794,8.5432333 47.712289,8.4033753 47.030052,7.9473088 46.386096,7.3000484 45.608169,6.5181312 45.192514,5.7129771 45.090722,4.7908204 45.026792,4.2116436 45.162452,3.5430224 45.462537,2.9582539 45.706398,2.483054 45.998632,2.1089684 46.522481,1.6014329 47.201961,0.94311349 47.753147,0.68732837 48.61747,0.6292266 L 48.898953,0.6103047 48.66987,0.6066097 c -0.538338,-0.008682 -1.127551,0.16957482 -1.608841,0.4867287 -0.293678,0.1935241 -1.056738,0.9554528 -1.295121,1.2932018 -0.308588,0.4372173 -0.518833,0.8890186 -0.642447,1.3805738 -0.05975,0.2375949 -0.06663,0.3114664 -0.06675,0.7170694 -1.49e-4,0.482922 0.01485,0.5898317 0.140954,1.0048591 0.209974,0.6910408 0.625756,1.3265159 1.284145,1.9626643 0.645802,0.6239878 1.302431,1.0339846 1.839349,1.1484843 0.211989,0.045207 0.869057,0.052791 1.306317,0.015077 z"
     id="path44" />
  <path
     style="fill:#ff0000;stroke-width:0.0251215"
     d="M 48.321159,8.7243231 C 48.158246,8.7017931 47.941218,8.6346226 47.795617,8.5616665 47.231306,8.2789095 46.09113,7.2311799 45.516732,6.4675569 45.122544,5.9435103 44.985437,5.438594 44.984979,4.5093049 c -5.82e-4,-1.1835978 0.21126,-1.7196915 1.045066,-2.6446715 0.250808,-0.278233 0.631497,-0.6315944 0.888147,-0.824391 0.420087,-0.31557152 0.881992,-0.45308988 1.739853,-0.5179888 0.472953,-0.0357799 1.036384,7.649e-5 1.434178,0.09127 1.627261,0.37304666 2.888018,1.6348023 3.233586,3.2361464 0.05766,0.2671862 0.06399,1.2157596 0.0099,1.4886436 -0.125117,0.6316295 -0.533441,1.4327672 -1.037116,2.0348396 -0.223928,0.2676731 -0.612405,0.646617 -0.782563,0.7633595 -0.565697,0.3881142 -1.595616,0.6130574 -2.755278,0.6017764 -0.200344,-0.00195 -0.398176,-0.00823 -0.439626,-0.013966 z M 49.612074,8.6160389 C 51.10635,8.4837799 52.130887,7.7743861 52.833578,6.3854546 53.023416,6.0102227 53.157855,5.6617416 53.24724,5.3131921 53.31045,5.0666992 53.31813,4.9934475 53.31828,4.6349123 53.318481,4.1778494 53.28171,3.9455129 53.13934,3.5044459 52.856923,2.6294713 52.323955,1.9189081 51.536173,1.3670673 51.27312,1.1827991 50.700113,0.90185219 50.365877,0.79326738 50.039625,0.68727687 49.77757,0.6364504 49.464186,0.61838123 l -0.238654,-0.0137603 0.295987,0.037476 c 1.893666,0.23976388 3.358291,1.57313317 3.714389,3.38151477 0.07022,0.3566054 0.0751,0.8629161 0.01116,1.1588951 -0.07171,0.3319911 -0.207904,0.6890452 -0.44271,1.160666 C 52.531774,6.8906732 52.325888,7.1877445 51.97681,7.5372342 51.356808,8.1579655 50.587927,8.4930267 49.552107,8.5938653 49.13043,8.6349163 48.504734,8.6109463 48.24579,8.5438203 47.575621,8.3700906 46.569657,7.6095422 45.934991,6.7967605 45.312227,5.9992212 45.005289,5.0671157 45.090066,4.2309027 c 0.03466,-0.3418654 0.07642,-0.5327597 0.181995,-0.8319195 0.224372,-0.6357894 0.582338,-1.1502737 1.251255,-1.7983591 0.689452,-0.66798167 1.201505,-0.90055941 2.162104,-0.98204134 0.06218,-0.005274 -0.0113,-0.00558 -0.163289,-6.8083e-4 -0.571756,0.0184317 -1.138211,0.223712 -1.601918,0.58052647 -0.387914,0.2984934 -0.977306,0.9242972 -1.237944,1.3144239 -0.687686,1.0293368 -0.820044,2.1421398 -0.386859,3.2525264 0.21488,0.5508055 0.555862,1.045646 1.091395,1.5838573 0.71074,0.7142945 1.368398,1.132765 1.972036,1.254815 0.198906,0.040217 0.862575,0.046565 1.253233,0.011988 z"
     id="path45" />
  <path
     style="fill:#ff0000;stroke-width:0.0251215"
     d="M 48.195551,8.7032491 C 47.98897,8.6577609 47.718394,8.5356824 47.509021,8.3934998 46.915438,7.9904057 45.949078,7.0514842 45.489269,6.4310978 45.116763,5.9285028 44.984043,5.4197363 44.984662,4.4967442 c 8.39e-4,-1.250225 0.273563,-1.8667005 1.266862,-2.8636637 0.471535,-0.4732744 0.819534,-0.73622196 1.152175,-0.87058168 0.626035,-0.2528667 1.814857,-0.32979624 2.613159,-0.16909936 0.103627,0.0208598 0.32334,0.0827185 0.488252,0.13746391 1.390511,0.46160373 2.437313,1.58284033 2.792464,2.99102593 0.05638,0.22354 0.06726,0.3300957 0.07782,0.7622941 0.01416,0.579454 -0.01797,0.8607063 -0.142047,1.2435131 -0.157377,0.4855434 -0.529046,1.1507166 -0.898353,1.6077745 -0.183144,0.2266602 -0.653805,0.6884352 -0.810842,0.7955328 -0.380907,0.2597749 -0.936501,0.4428903 -1.670578,0.5505984 -0.385522,0.056566 -1.437085,0.070295 -1.658018,0.021647 z m 0.741084,-0.08822 C 48.569515,8.6012198 48.396408,8.5835378 48.245794,8.5444626 47.550119,8.3639766 46.507313,7.5612668 45.882481,6.7252801 45.085715,5.6592561 44.875243,4.5179939 45.269962,3.40396 c 0.227941,-0.64333 0.581247,-1.1521599 1.249663,-1.7997603 0.637873,-0.61800783 1.134126,-0.86630043 1.922372,-0.96182867 0.163818,-0.0198532 0.233938,-0.0351297 0.168059,-0.0366134 -0.175703,-0.003957 -0.56867,0.0625951 -0.803992,0.13616284 -0.56245,0.17583651 -0.992341,0.48005473 -1.605262,1.13598493 -0.398383,0.4263378 -0.638944,0.7735322 -0.839938,1.2122559 -0.55329,1.207707 -0.373357,2.5078581 0.508748,3.6760849 0.578929,0.7667132 1.513833,1.5169442 2.187771,1.7556174 0.249345,0.088305 0.471811,0.1154678 0.929495,0.1134905 l 0.439626,-0.0019 z m 1.193296,-0.073258 C 51.197517,8.3241204 52.005146,7.7611164 52.580493,6.8334657 52.84348,6.4094446 53.087734,5.86714 53.217654,5.4188141 53.417642,4.7286973 53.334759,3.8983896 52.986159,3.0997379 52.666872,2.3682449 52.068842,1.6895151 51.360857,1.2551141 50.810193,0.91724098 49.967182,0.62142817 49.580738,0.63047004 c -0.07314,0.001711 -0.03787,0.0127161 0.118896,0.0370938 0.903382,0.14048232 1.756375,0.57311346 2.401058,1.21779596 0.33643,0.3364304 0.5585,0.6473821 0.779532,1.0915351 0.283914,0.5705102 0.411048,1.0887112 0.409857,1.6705781 -0.0011,0.5548847 -0.114119,0.9493198 -0.485719,1.6956997 -0.272584,0.5475004 -0.47847,0.8445717 -0.827548,1.1940614 -0.597054,0.5977565 -1.358759,0.9405418 -2.339469,1.0528152 l -0.210841,0.024137 0.226119,-0.010603 c 0.124366,-0.00583 0.339154,-0.033648 0.477308,-0.061812 z M 49.432784,0.61072002 c -0.02418,-0.006319 -0.06375,-0.006319 -0.08792,0 -0.02418,0.006319 -0.0044,0.0114886 0.04396,0.0114886 0.04836,0 0.06814,-0.00517 0.04396,-0.0114886 z"
     id="path46" />
  <path
     style="fill:#ff0000;stroke-width:0.0251215"
     d="M 48.195551,8.7014939 C 47.735918,8.6056108 47.220459,8.2463819 46.415673,7.4610783 45.589765,6.6551643 45.245897,6.1783012 45.105889,5.6447183 45.011616,5.2854389 44.984307,5.0268254 44.984662,4.4967442 c 8.07e-4,-1.2021548 0.21711,-1.7306483 1.106426,-2.7033327 0.510067,-0.5578835 1.034749,-0.94841984 1.460952,-1.08743089 0.469564,-0.15315402 1.294542,-0.23253164 1.903777,-0.18317755 0.448387,0.0363238 0.655031,0.0772138 1.046041,0.20698724 1.40281,0.4655827 2.436515,1.5758966 2.800315,3.0078477 0.06579,0.25896 0.06833,0.2932113 0.06658,0.8972743 -0.0017,0.5926488 -0.0055,0.6415887 -0.06651,0.8685409 -0.159558,0.5932293 -0.523921,1.2833534 -0.967247,1.8320178 -0.186726,0.2310939 -0.654589,0.6888826 -0.818926,0.8012914 -0.438612,0.3000187 -1.197134,0.516228 -2.035426,0.5801787 -0.470183,0.035869 -1.073879,0.028612 -1.285086,-0.015447 z m 0.690841,-0.086681 C 48.348267,8.591658 48.150146,8.5453109 47.768486,8.3532974 47.315276,8.1252866 46.755584,7.6938718 46.307962,7.2275139 44.783641,5.6393877 44.669075,3.7362108 46.002179,2.1477977 46.302516,1.7899424 46.816973,1.3069238 47.094333,1.1223865 47.503844,0.84992356 47.804604,0.73649269 48.342459,0.65165807 48.586986,0.61308946 48.610243,0.6063275 48.459327,0.61767931 48.06412,0.64740648 47.718398,0.7458733 47.353982,0.93249758 47.075645,1.0750396 46.909863,1.1955647 46.595125,1.4841952 c -0.816802,0.7490496 -1.301146,1.5227756 -1.492676,2.3845121 -0.05948,0.2676281 -0.05984,0.940497 -6.54e-4,1.2394753 0.160375,0.8101547 0.583416,1.5423641 1.308827,2.2653456 0.725234,0.7228049 1.457418,1.1676736 2.046811,1.2436231 0.07703,0.00993 0.30398,0.017718 0.504323,0.017313 l 0.364262,-7.355e-4 z m 1.243513,-0.076149 c 1.022937,-0.2054193 1.793516,-0.7237744 2.386173,-1.605136 0.173077,-0.2573898 0.507045,-0.9313784 0.616173,-1.243513 0.103106,-0.2949121 0.175118,-0.6214965 0.171718,-0.7787658 -0.0024,-0.1105777 -0.0053,-0.1030628 -0.02427,0.062804 -0.07296,0.6376682 -0.555645,1.6907796 -1.055302,2.3024247 -0.592271,0.7250179 -1.400352,1.1468582 -2.496434,1.3032062 l -0.251214,0.035834 0.200972,-0.013203 c 0.110534,-0.00726 0.314018,-0.035904 0.452186,-0.06365 z m 3.17983,-4.191255 C 53.204558,3.1598124 52.551388,2.0708588 51.518905,1.3617654 50.994532,1.0016342 50.187566,0.68422867 49.690279,0.64250801 c -0.145594,-0.0122148 -0.136596,-0.008511 0.08303,0.0341822 0.934745,0.18170492 1.698783,0.57845919 2.327808,1.20879779 0.69917,0.7006301 1.100441,1.5614124 1.188013,2.5484525 0.01716,0.1934354 0.0351,0.3240658 0.03987,0.2902899 0.0048,-0.033776 -0.0039,-0.2033457 -0.01927,-0.3768221 z"
     id="path47" />
  <path
     style="fill:#ff0000;stroke-width:0.0251215"
     d="M 48.195551,8.703883 C 47.703125,8.597228 47.077722,8.1414119 46.209468,7.2563544 45.194869,6.2221198 44.985157,5.7499476 44.983805,4.4967442 44.982839,3.6012651 45.117253,3.084515 45.497863,2.5204597 c 0.34093,-0.5052506 0.991919,-1.1783784 1.462658,-1.5124003 0.43594,-0.30932958 1.000226,-0.4595884 1.863067,-0.49609985 0.635636,-0.0268972 1.137129,0.0381897 1.67827,0.21781654 1.298392,0.43098951 2.297326,1.42934391 2.713787,2.71221151 0.140185,0.4318279 0.155163,0.5512792 0.152732,1.2180462 -0.0021,0.5636611 -0.0064,0.6185739 -0.06651,0.8434194 -0.158092,0.5911892 -0.523098,1.2827962 -0.966874,1.8320178 -0.186726,0.2310939 -0.654589,0.6888826 -0.818926,0.8012914 -0.373376,0.2553965 -0.927873,0.4371418 -1.662231,0.544824 -0.382689,0.056115 -1.436707,0.070287 -1.658281,0.022297 z M 48.823588,8.614468 C 48.244408,8.5842859 47.904732,8.4732244 47.420594,8.1557412 46.105264,7.2931875 45.234352,6.0619764 45.095822,4.8692027 c -0.01783,-0.1535296 -0.02192,-0.1647215 -0.02463,-0.067496 -0.0123,0.4398291 0.314067,1.2862032 0.708003,1.8360865 0.524301,0.7318551 1.363101,1.4647066 2.035573,1.7784603 0.367586,0.1715043 0.609065,0.2196142 1.096751,0.2185068 l 0.288896,-6.559e-4 z m 0.835289,-0.015119 c -0.02418,-0.00632 -0.06374,-0.00632 -0.08792,0 -0.02418,0.00632 -0.0044,0.011489 0.04396,0.011489 0.04836,0 0.06814,-0.00517 0.04396,-0.011489 z M 50.125959,8.53988 c 1.25614,-0.2543401 2.119911,-0.9618232 2.743319,-2.2469507 0.25929,-0.5345134 0.443672,-1.1156349 0.436061,-1.3743417 -0.0013,-0.045487 -0.01781,0.016098 -0.03661,0.1368548 -0.07814,0.501919 -0.441735,1.3535938 -0.819106,1.9186359 -0.212584,0.3183036 -0.614941,0.7371935 -0.900351,0.937344 -0.232546,0.1630796 -0.595955,0.3481922 -0.881226,0.4488781 -0.20981,0.074052 -0.700339,0.1933065 -0.877277,0.2132786 l -0.08792,0.00992 0.08398,0.00402 c 0.04619,0.00221 0.198801,-0.019229 0.33914,-0.047644 z M 45.13125,3.9018119 c 0.05212,-0.2808745 0.142794,-0.550301 0.287366,-0.8539107 0.240543,-0.5051536 0.532971,-0.8907131 1.076722,-1.4196356 0.609109,-0.5924974 1.071759,-0.84775961 1.739144,-0.95955469 0.116756,-0.0195581 0.182445,-0.0367108 0.145975,-0.0381171 -0.110116,-0.004246 -0.467384,0.0716156 -0.658435,0.13981095 -0.472544,0.16867443 -0.826016,0.41203694 -1.323168,0.91099084 -0.408437,0.4099166 -0.615435,0.6654458 -0.827635,1.0216756 -0.349025,0.5859221 -0.536599,1.240939 -0.524437,1.8313552 0.0021,0.1019917 0.01009,0.057316 0.02471,-0.1381681 0.01188,-0.1588934 0.03877,-0.3813943 0.05975,-0.4944464 z m 8.193931,0.6770551 c -0.0064,-0.024442 -0.012,-0.010527 -0.01251,0.030924 -5.12e-4,0.04145 0.0047,0.061449 0.01158,0.044441 0.0069,-0.017008 0.0073,-0.050922 9.31e-4,-0.075365 z M 53.257298,3.9664233 C 53.090374,3.1421311 52.738814,2.4931697 52.128449,1.8826235 51.624615,1.3786408 51.104877,1.0544034 50.422514,0.81838076 50.173405,0.73221641 49.720804,0.62563036 49.62353,0.63022244 c -0.02546,0.001202 0.08371,0.0301696 0.2426,0.0643723 1.162421,0.25021801 2.102168,0.86573516 2.737086,1.79273946 0.358223,0.5230187 0.618733,1.2180898 0.673088,1.7958774 0.01723,0.1831708 0.01957,0.1896009 0.02638,0.072595 0.0041,-0.070608 -0.01631,-0.2458297 -0.04538,-0.3893829 z m -4.72941,-3.35356396 c -0.0083,-0.008348 -0.03001,-0.00924 -0.04815,-0.001983 -0.02004,0.008019 -0.01409,0.0139721 0.01518,0.0151776 0.02648,0.001091 0.04132,-0.004847 0.03297,-0.0131946 z"
     id="path48" />
  <path
     style="fill:#ff0000;stroke-width:0.0251215"
     d="M 48.195551,8.7038312 C 47.703304,8.5973599 47.077783,8.1414739 46.209468,7.2563544 45.194869,6.2221198 44.985157,5.7499476 44.983805,4.4967442 c -0.0011,-1.0283391 0.176339,-1.5795987 0.730294,-2.2687277 0.397378,-0.4943442 0.911312,-0.9923509 1.288246,-1.24832187 0.48156,-0.32702159 1.068803,-0.4600596 2.034776,-0.46097215 0.761772,-7.1964e-4 1.118781,0.0634112 1.749752,0.3143142 0.694773,0.27627342 1.411244,0.83939682 1.849251,1.45345312 0.307611,0.4312506 0.584721,1.0612564 0.701468,1.5947782 0.0226,0.1032955 0.03235,0.3444155 0.03098,0.766205 -0.0019,0.5781924 -0.0059,0.6300451 -0.06651,0.8559802 -0.158975,0.5927027 -0.522399,1.28099 -0.96838,1.8340104 -0.229486,0.2845643 -0.724506,0.7485361 -0.925617,0.8675624 -0.36349,0.2151285 -0.860743,0.3715313 -1.479127,0.4652354 -0.451176,0.068367 -1.480354,0.088299 -1.733382,0.03357 z m 0.798365,-0.0804 c -0.0583,-0.00527 -0.160046,-0.00533 -0.226093,-1.392e-4 -0.06605,0.00519 -0.01834,0.0095 0.106008,0.00958 0.124352,7.66e-5 0.17839,-0.00417 0.120085,-0.00944 z M 48.471888,8.5888027 C 47.890434,8.504951 47.198688,8.0925112 46.482418,7.4026194 45.694336,6.6435599 45.245586,5.8443247 45.106577,4.9522091 c -0.02121,-0.1361544 -0.03469,-0.181371 -0.03622,-0.1215462 -0.01044,0.4086701 0.332174,1.2822885 0.708006,1.8053277 0.756933,1.0534128 2.046358,1.9864073 2.731203,1.9762291 0.108052,-0.00161 0.106387,-0.00264 -0.03768,-0.023417 z m 1.174429,0.011226 c -0.01727,-0.00697 -0.04553,-0.00697 -0.0628,0 -0.01727,0.00697 -0.0031,0.012671 0.0314,0.012671 0.03454,0 0.04867,-0.0057 0.0314,-0.012671 z m 0.213532,-0.025801 c -0.02418,-0.00632 -0.06375,-0.00632 -0.08792,0 -0.02418,0.00632 -0.0044,0.011489 0.04396,0.011489 0.04836,0 0.06814,-0.00517 0.04396,-0.011489 z m 0.312376,-0.046179 c 1.154914,-0.2411622 1.996393,-0.9024835 2.604715,-2.0470552 0.264155,-0.497013 0.483816,-1.113951 0.515087,-1.4466694 0.01225,-0.1303269 0.0093,-0.1239629 -0.0241,0.052774 -0.09758,0.5157127 -0.455884,1.3446476 -0.810343,1.8747305 -0.539051,0.8061351 -1.289137,1.3107311 -2.289998,1.5405231 -0.29082,0.066771 -0.287234,0.086643 0.0046,0.025696 z M 45.060833,4.3777626 c -0.0058,-0.038186 -0.01065,-0.012906 -0.01084,0.056178 -1.88e-4,0.069084 0.0045,0.1003274 0.0105,0.06943 0.006,-0.030898 0.0061,-0.087421 3.43e-4,-0.1256074 z M 53.297298,4.2293218 C 53.24672,3.6711746 52.955927,2.9244488 52.585817,2.4023162 52.299684,1.9986533 51.696109,1.4486413 51.285493,1.2173871 c -0.182328,-0.1026854 -0.135645,-0.064657 0.16329,0.1330169 0.88843,0.5874836 1.498156,1.451576 1.746287,2.4748039 0.03273,0.1349687 0.06728,0.3243218 0.07679,0.4207848 0.0095,0.096463 0.02303,0.1753871 0.03006,0.1753871 0.007,0 0.0049,-0.086426 -0.0046,-0.192058 z M 45.171669,3.7179784 c 0.183125,-0.7383507 0.582566,-1.3692567 1.321404,-2.0871231 0.484496,-0.4707434 0.825986,-0.69787926 1.283787,-0.85388686 0.119746,-0.0408064 0.178153,-0.0671531 0.129794,-0.0585482 -0.26603,0.0473373 -0.73502,0.28603626 -1.037882,0.52824466 -0.272711,0.2180959 -0.816576,0.778278 -1.027651,1.0584829 -0.429732,0.5704739 -0.729697,1.2768948 -0.759932,1.7896528 l -0.01111,0.188411 0.02432,-0.1758503 c 0.01337,-0.096718 0.04815,-0.27194 0.07728,-0.3893829 z m 5.975656,-2.5745281 c 0,-0.015234 -0.242523,-0.1390142 -0.269221,-0.1374061 -0.01082,6.518e-4 0.0425,0.034032 0.118492,0.074179 0.154213,0.081471 0.150729,0.080009 0.150729,0.063227 z M 50.770503,0.95669642 c -0.04836,-0.0252681 -0.116187,-0.053162 -0.150729,-0.0619864 -0.03454,-0.008824 -0.0063,0.0114083 0.0628,0.0449614 0.146156,0.070986 0.217715,0.084842 0.08792,0.017025 z M 50.518662,0.8552824 c -0.07286,-0.0426851 -0.553825,-0.17549347 -0.684575,-0.18903263 -0.08836,-0.009149 -0.04401,0.007168 0.135696,0.0499344 0.146819,0.0349388 0.327693,0.0850962 0.401944,0.11146077 0.145858,0.0517911 0.208174,0.0635123 0.146935,0.0276375 z M 48.17043,0.67827985 c 0.06769,-0.0172255 0.06897,-0.0192246 0.01256,-0.0196451 -0.03454,-2.5747e-4 -0.09107,0.008583 -0.125608,0.0196451 -0.04921,0.0157607 -0.05193,0.020012 -0.01256,0.0196451 0.02763,-2.5747e-4 0.08416,-0.009098 0.125608,-0.0196451 z m 0.195169,-0.0415996 c -0.01701,-0.006881 -0.05092,-0.0073 -0.07536,-9.3085e-4 -0.02444,0.006369 -0.01053,0.0119996 0.03092,0.0125116 0.04145,5.1197e-4 0.06145,-0.004699 0.04444,-0.0115808 z m 1.317877,0.001301 c -0.0083,-0.008348 -0.03001,-0.00924 -0.04815,-0.001983 -0.02004,0.008019 -0.01409,0.0139721 0.01518,0.0151776 0.02648,0.001091 0.04132,-0.004847 0.03297,-0.0131946 z"
     id="path49" />
  <path
     style="fill:#ff0000;stroke-width:0.0251215"
     d="M 48.195551,8.7030148 C 47.719453,8.6095074 47.079988,8.1437223 46.209468,7.2563544 45.394149,6.4252561 45.133356,5.9906206 45.033012,5.2956825 44.916248,4.4870174 44.983461,3.5915345 45.200457,3.0648201 45.380302,2.6282819 45.735954,2.1449202 46.273258,1.6067906 47.1484,0.73030454 47.700557,0.51485364 49.062242,0.51853319 c 0.460989,0.001246 0.618514,0.011259 0.854131,0.0542938 1.569657,0.28669491 2.867894,1.43670171 3.324292,2.94473051 0.121623,0.4018668 0.152069,0.6855012 0.135715,1.2643149 -0.01136,0.4020899 -0.02387,0.5205646 -0.07621,0.7215808 -0.144005,0.5530882 -0.433166,1.1227974 -0.859778,1.6939506 -0.257818,0.3451699 -0.789648,0.8644235 -1.032025,1.0076222 -0.456028,0.2694255 -1.125246,0.449175 -1.903865,0.5113707 -0.443581,0.035433 -1.094274,0.028781 -1.308949,-0.013382 z m 0.747364,-0.078956 c -0.03109,-0.00599 -0.08196,-0.00599 -0.113046,0 -0.03109,0.00599 -0.0057,0.010887 0.05652,0.010887 0.06218,0 0.08761,-0.0049 0.05652,-0.010887 z m -0.52525,-0.044559 C 48.052234,8.5131889 47.725221,8.3675976 47.328861,8.094748 46.110398,7.2559735 45.340453,6.1943249 45.119656,5.0485588 45.083799,4.8624928 45.073046,4.8296997 45.082868,4.93637 c 0.04224,0.4587058 0.293841,1.097238 0.630602,1.6003636 0.456356,0.6818019 1.223342,1.391574 1.94197,1.797107 0.267907,0.1511843 0.657695,0.2804298 0.841569,0.2790469 0.07843,-5.899e-4 0.06101,-0.00792 -0.07934,-0.033388 z m 1.429623,-0.00459 c -0.01727,-0.00697 -0.04553,-0.00697 -0.0628,0 -0.01727,0.00697 -0.0031,0.012671 0.0314,0.012671 0.03454,0 0.04867,-0.0057 0.0314,-0.012671 z m 0.175851,-0.025121 c -0.01727,-0.00697 -0.04553,-0.00697 -0.0628,0 -0.01727,0.00697 -0.0031,0.012671 0.0314,0.012671 0.03454,0 0.04867,-0.0057 0.0314,-0.012671 z m 0.354155,-0.070927 C 51.05807,8.3019815 51.563371,8.0031482 52.068168,7.4788861 52.367775,7.167726 52.615854,6.8024093 52.852614,6.3237235 53.020942,5.9833936 53.25803,5.3449579 53.255868,5.2378304 c -5.57e-4,-0.027634 -0.02883,0.043859 -0.06283,0.158872 -0.148413,0.5020278 -0.443666,1.1287767 -0.741747,1.5745475 -0.509705,0.7622494 -1.236016,1.2667608 -2.170653,1.507783 -0.124351,0.032068 -0.207548,0.059197 -0.184881,0.060288 0.02267,0.00109 0.14936,-0.026115 0.281541,-0.060459 z m 2.896872,-3.3854799 c -0.007,-0.017271 -0.01267,-0.00314 -0.01267,0.031402 0,0.034542 0.0057,0.048673 0.01267,0.031402 0.007,-0.017271 0.007,-0.045533 0,-0.062804 z m 0.02564,-0.1240373 c -0.008,-0.02004 -0.01397,-0.014088 -0.01518,0.015178 -0.0011,0.026482 0.0048,0.04132 0.01319,0.032972 0.0083,-0.00835 0.0092,-0.030015 0.002,-0.04815 z M 45.059967,4.4166695 c -0.008,-0.02004 -0.01397,-0.014088 -0.01518,0.015178 -0.0011,0.026482 0.0048,0.04132 0.01319,0.032972 0.0083,-0.00835 0.0092,-0.030015 0.002,-0.04815 z m 8.240412,-0.152299 c -0.006,-0.031088 -0.01089,-0.00565 -0.01089,0.056523 0,0.062176 0.0049,0.087611 0.01089,0.056523 0.006,-0.031088 0.006,-0.081959 0,-0.113046 z M 45.132944,3.8978665 C 45.210077,3.4718503 45.432922,2.9396427 45.699724,2.5442583 45.885325,2.2692103 46.157719,1.954476 46.490027,1.631112 46.820502,1.3095327 47.083067,1.1052221 47.359551,0.95450675 47.56487,0.8425847 47.57373,0.8183427 47.371988,0.92047781 46.955498,1.1313328 46.389502,1.634027 45.905164,2.2232506 c -0.269039,0.3273 -0.546382,0.8290987 -0.681955,1.2338677 -0.08453,0.2523668 -0.157368,0.5995087 -0.151517,0.7221022 l 0.0038,0.07887 0.0098,-0.075365 c 0.0054,-0.04145 0.02685,-0.169637 0.04771,-0.2848592 z m 8.125228,0.076994 C 53.184501,3.5518109 52.915936,2.8962379 52.6614,2.5181283 52.503343,2.2833371 52.296399,2.0363909 52.098507,1.8464285 51.967634,1.7208 51.974976,1.7317509 52.142595,1.9121891 c 0.591825,0.637087 0.966489,1.3601117 1.096406,2.1158391 0.01625,0.094535 0.03381,0.1591061 0.03901,0.1434918 0.0052,-0.015614 -0.0037,-0.1041111 -0.01984,-0.1966599 z M 51.828077,1.6062317 c -0.139862,-0.126446 -0.380032,-0.2969418 -0.542584,-0.3851779 -0.141006,-0.076541 -0.123134,-0.062914 0.184918,0.1409894 0.119364,0.079008 0.267897,0.1887468 0.330072,0.2438632 0.06218,0.055117 0.118699,0.1002301 0.125608,0.1002525 0.0069,2.25e-5 -0.0372,-0.044945 -0.09801,-0.099927 z M 51.147325,1.1434503 c 0,-0.015234 -0.242523,-0.1390142 -0.269221,-0.1374061 -0.01082,6.518e-4 0.0425,0.034032 0.118492,0.074179 0.154213,0.081471 0.150729,0.080009 0.150729,0.063227 z M 50.770503,0.95461608 c -0.02072,-0.0133937 -0.04899,-0.0243521 -0.0628,-0.0243521 -0.01382,0 -0.0082,0.0109584 0.01256,0.0243521 0.02072,0.0133937 0.04899,0.0243521 0.0628,0.0243521 0.01382,0 0.0082,-0.0109584 -0.01256,-0.0243521 z m -0.100486,-0.0349945 c 0,-0.00543 -0.01754,-0.0166053 -0.03899,-0.0248337 -0.02236,-0.008579 -0.03244,-0.004367 -0.02364,0.009873 0.01475,0.0238705 0.06263,0.0353069 0.06263,0.0149607 z M 50.472384,0.83824775 C 50.36989,0.79352932 49.943838,0.67768352 49.891251,0.68023462 c -0.02072,0.001005 0.08102,0.0339432 0.226093,0.073195 0.145077,0.0392518 0.292038,0.0829028 0.32658,0.0970021 0.098,0.040001 0.12327,0.029182 0.02846,-0.012184 z m -2.842066,-0.009239 c 0.02072,-0.0133937 0.02638,-0.0243521 0.01256,-0.0243521 -0.01382,0 -0.04208,0.0109584 -0.0628,0.0243521 -0.02072,0.0133937 -0.02638,0.0243521 -0.01256,0.0243521 0.01382,0 0.04208,-0.0109584 0.0628,-0.0243521 z m 0.175851,-0.0628037 c 0.04836,-0.0186229 0.07097,-0.03421 0.05024,-0.0346379 -0.02073,-4.2797e-4 -0.0716,0.0147508 -0.113047,0.0337307 -0.09702,0.044425 -0.05189,0.0450769 0.0628,9.0726e-4 z m 0.3517,-0.0879252 c 0.04973,-0.0159263 0.05235,-0.0201133 0.01256,-0.0201133 -0.02763,0 -0.0785,0.009051 -0.113047,0.0201133 -0.04973,0.0159263 -0.05235,0.0201132 -0.01256,0.0201132 0.02763,0 0.0785,-0.009051 0.113046,-0.0201132 z m 0.207252,-0.041759 c -0.01727,-0.006969 -0.04553,-0.006969 -0.0628,0 -0.01727,0.006969 -0.0031,0.0126709 0.0314,0.0126709 0.03454,0 0.04867,-0.005702 0.0314,-0.0126709 z"
     id="path50" />
  <path
     style="fill:#ff0000;stroke-width:0.0251215"
     d="M 48.296037,8.7266081 C 47.791473,8.6472458 47.262684,8.2904041 46.403031,7.4491554 45.620729,6.6836001 45.275477,6.2189552 45.123795,5.727539 44.917804,5.0601754 44.929179,3.8561091 45.147645,3.2029882 45.308169,2.7230875 45.659913,2.22281 46.261198,1.6192046 c 0.836445,-0.8396735 1.332548,-1.05397696 2.56239,-1.10688626 1.36071,-0.0585394 2.48597,0.36728258 3.3914,1.28337686 0.538491,0.5448341 0.933044,1.2603012 1.108552,2.0102084 0.03957,0.169062 0.04685,0.30069 0.04587,0.8290087 -0.0011,0.5681084 -0.0065,0.6478085 -0.05705,0.8352396 -0.223456,0.8285658 -0.715738,1.6483788 -1.378783,2.2961323 -0.164755,0.160955 -0.380518,0.3450206 -0.479474,0.4090351 -0.341665,0.2210218 -0.918511,0.407084 -1.562857,0.5041004 -0.257108,0.038712 -1.428755,0.07337 -1.595214,0.047188 z M 48.516328,8.600188 c -0.01701,-0.00688 -0.05092,-0.0073 -0.07536,-9.307e-4 -0.02444,0.00637 -0.01053,0.011999 0.03092,0.012512 0.04145,5.12e-4 0.06145,-0.0047 0.04444,-0.011581 z M 48.365121,8.574907 c -0.01727,-0.00697 -0.04553,-0.00697 -0.0628,0 -0.01727,0.00697 -0.0031,0.012671 0.0314,0.012671 0.03454,0 0.04867,-0.0057 0.0314,-0.012671 z M 48.107626,8.5053821 C 47.325225,8.2308232 46.275398,7.3484753 45.714345,6.4939015 45.55717,6.2544986 45.517816,6.2028102 45.570896,6.3054904 c 0.141449,0.2736254 0.445541,0.6577494 0.822651,1.0391607 0.564653,0.5710928 1.164067,0.9912186 1.671912,1.1718337 0.07155,0.025447 0.147049,0.046252 0.167775,0.046233 0.02072,-1.89e-5 -0.0358,-0.02582 -0.125608,-0.057336 z m 2.053158,0.020742 c -0.0083,-0.00835 -0.03001,-0.00924 -0.04815,-0.00198 -0.02004,0.00802 -0.01409,0.013972 0.01518,0.015177 0.02648,0.00109 0.04132,-0.00485 0.03297,-0.013194 z m 0.100486,-0.025121 c -0.0083,-0.00835 -0.03002,-0.00924 -0.04815,-0.00198 -0.02004,0.00802 -0.01409,0.013972 0.01518,0.015177 0.02648,0.00109 0.04132,-0.00485 0.03297,-0.013194 z m 0.100485,-0.025122 c -0.0083,-0.00835 -0.03001,-0.00924 -0.04815,-0.00198 -0.02004,0.00802 -0.01409,0.013972 0.01518,0.015177 0.02648,0.00109 0.04132,-0.00485 0.03297,-0.013194 z m 0.274002,-0.074881 c 0.518793,-0.1705349 0.933677,-0.4311302 1.355009,-0.851103 0.336092,-0.3350077 0.582817,-0.6794433 0.822996,-1.1489285 0.138051,-0.2698526 0.355386,-0.7951477 0.336711,-0.8138232 -0.0055,-0.00549 -0.04737,0.088885 -0.09305,0.2097299 -0.04568,0.1208451 -0.159751,0.3731978 -0.253482,0.5607844 -0.523924,1.0485317 -1.180924,1.6605213 -2.159046,2.0111317 -0.30042,0.1076867 -0.306763,0.1300423 -0.0091,0.032209 z M 45.464643,6.0676433 c -0.04407,-0.089365 -0.08427,-0.1583371 -0.08934,-0.1532709 -0.01123,0.011232 0.140661,0.3157536 0.157495,0.3157536 0.0066,0 -0.02409,-0.073117 -0.06816,-0.1624827 z M 45.334675,5.7864408 c -0.02125,-0.039218 -0.03909,-0.063358 -0.03965,-0.053646 -0.0017,0.029861 0.05674,0.1464979 0.06784,0.1353967 0.0057,-0.00575 -0.0069,-0.042533 -0.0282,-0.081751 z M 45.233087,5.5119706 c -0.01981,-0.054061 -0.03681,-0.085849 -0.03778,-0.070639 -0.0025,0.038433 0.05209,0.1906386 0.06404,0.178688 0.0054,-0.00537 -0.0064,-0.053988 -0.02626,-0.108049 z m 8.008075,-0.2122393 c 0.0083,-0.047864 -0.0071,-0.019197 -0.03416,0.063704 -0.0271,0.082901 -0.04863,0.1620335 -0.04785,0.1758503 0.0023,0.040287 0.06546,-0.1442229 0.08201,-0.2395543 z m -8.0961,-0.1264525 c -0.02628,-0.116483 -0.04873,-0.1914095 -0.0499,-0.1665036 -0.0027,0.058165 0.07492,0.401044 0.08788,0.3880874 0.0054,-0.00539 -0.0117,-0.1051005 -0.03798,-0.2215838 z m 8.129104,-0.0799 c -0.007,-0.017271 -0.01267,-0.00314 -0.01267,0.031402 0,0.034542 0.0057,0.048673 0.01267,0.031402 0.007,-0.017271 0.007,-0.045533 0,-0.062804 z M 45.085089,4.8939775 c -0.008,-0.02004 -0.01397,-0.014088 -0.01518,0.015178 -0.0011,0.026482 0.0048,0.04132 0.01319,0.032972 0.0083,-0.00835 0.0092,-0.030015 0.002,-0.04815 z m 8.214878,-0.6170462 c -0.0063,-0.024179 -0.01149,-0.0044 -0.01149,0.043963 0,0.048359 0.0052,0.068142 0.01149,0.043963 0.0063,-0.024179 0.0063,-0.063746 0,-0.087926 z M 45.181501,3.6551747 c 0.01051,-0.04145 0.01123,-0.068146 0.0016,-0.059323 -0.0248,0.022757 -0.114878,0.4713173 -0.112808,0.5617529 9.49e-4,0.04145 0.02206,-0.037682 0.04691,-0.1758504 0.02485,-0.1381681 0.05378,-0.2851287 0.06428,-0.3265792 z M 53.25739,3.9766028 C 53.211222,3.7254197 53.045811,3.2353569 52.919959,2.9768949 52.727481,2.5816014 52.401638,2.1293167 52.123627,1.87155 c -0.0824,-0.076398 -0.07505,-0.064354 0.03066,0.050243 0.382458,0.41462 0.659716,0.8403882 0.846196,1.299449 0.104178,0.2564579 0.257047,0.7949975 0.257047,0.9055471 0,0.028462 0.007,0.044722 0.01562,0.036132 0.0086,-0.00859 0.0015,-0.092433 -0.01576,-0.1863183 z M 45.318373,3.2532311 c 0,-0.013817 -0.01096,-0.00816 -0.02435,0.012561 -0.01339,0.020725 -0.02435,0.048987 -0.02435,0.062804 0,0.013817 0.01096,0.00816 0.02435,-0.012561 0.01339,-0.020725 0.02435,-0.048987 0.02435,-0.062804 z m 0.136289,-0.2826166 c 0.06391,-0.1278055 0.110547,-0.2323736 0.103639,-0.2323736 -0.01396,0 -0.239159,0.4410982 -0.239159,0.4684321 0,0.03052 0.01718,5.951e-4 0.13552,-0.2360585 z m 0.341789,-0.5629672 c 0.193708,-0.2783509 0.901033,-1.0027124 1.180709,-1.2091485 0.103626,-0.076489 0.273196,-0.1851041 0.376822,-0.24136657 0.103626,-0.0562624 0.176833,-0.10245435 0.162681,-0.10264869 -0.0477,-6.5504e-4 -0.423082,0.22581126 -0.604025,0.36440256 -0.361398,0.2768085 -0.969973,0.9218472 -1.208304,1.2807007 -0.216932,0.3266339 -0.158794,0.2686078 0.09212,-0.09194 z m 6.10373,-0.7380184 c -0.01763,-0.021247 -0.07837,-0.073463 -0.134963,-0.1160358 -0.08809,-0.066264 -0.08482,-0.060842 0.02271,0.037666 0.129652,0.1187768 0.168027,0.1455666 0.112258,0.078369 z M 51.649754,1.471317 c 0,-0.00597 -0.03674,-0.035163 -0.08164,-0.06488 l -0.08164,-0.05403 0.07536,0.064755 c 0.07729,0.066407 0.08792,0.072959 0.08792,0.054154 z M 51.360857,1.2659948 c -0.06435,-0.049595 -0.138168,-0.090241 -0.138168,-0.076076 0,0.012769 0.157206,0.115733 0.175851,0.1151753 0.0069,-2.067e-4 -0.01005,-0.017802 -0.03768,-0.0391 z m -0.263775,-0.147444 c 0,-0.015237 -0.141701,-0.088913 -0.168323,-0.087517 -0.01105,5.791e-4 0.01948,0.022715 0.06784,0.04919 0.09902,0.054209 0.100486,0.054769 0.100486,0.038327 z M 50.770503,0.95461608 c -0.02072,-0.0133937 -0.04899,-0.0243521 -0.0628,-0.0243521 -0.01382,0 -0.0082,0.0109584 0.01256,0.0243521 0.02072,0.0133937 0.04899,0.0243521 0.0628,0.0243521 0.01382,0 0.0082,-0.0109584 -0.01256,-0.0243521 z m -0.291671,-0.1137373 c -0.04298,-0.0188509 -0.110805,-0.0406229 -0.150729,-0.0483822 -0.03992,-0.007759 -0.01607,0.00771 0.05302,0.0343766 0.143336,0.0553278 0.215499,0.0656713 0.09771,0.0140056 z M 47.630318,0.8290087 c 0.02072,-0.0133937 0.02638,-0.0243521 0.01256,-0.0243521 -0.01382,0 -0.04208,0.0109584 -0.0628,0.0243521 -0.02072,0.0133937 -0.02638,0.0243521 -0.01256,0.0243521 0.01382,0 0.04208,-0.0109584 0.0628,-0.0243521 z m 0.138168,-0.050243 c 0.03313,-0.0142359 0.03741,-0.0220606 0.01256,-0.0229711 -0.02072,-7.5954e-4 -0.05464,0.009577 -0.07536,0.0229711 -0.04592,0.0296765 -0.0063,0.0296765 0.0628,0 z M 50.20527,0.7536442 c -0.02763,-0.0118746 -0.0672,-0.0215901 -0.08793,-0.0215901 -0.02375,0 -0.01911,0.007981 0.01256,0.0215901 0.02763,0.0118746 0.0672,0.0215901 0.08792,0.0215901 0.02375,0 0.01911,-0.007981 -0.01256,-0.0215901 z m -0.188412,-0.050243 c -0.08589,-0.0275083 -0.15194,-0.0275083 -0.08792,0 0.02763,0.0118746 0.07285,0.0212578 0.100486,0.0208517 0.04039,-5.9362e-4 0.03793,-0.004683 -0.01256,-0.0208517 z M 48.100823,0.6882237 c -0.0083,-0.008348 -0.03001,-0.00924 -0.04815,-0.001983 -0.02004,0.008019 -0.01409,0.0139721 0.01518,0.0151776 0.02648,0.001091 0.04132,-0.004847 0.03297,-0.0131946 z m 0.100486,-0.0251215 c -0.0083,-0.008348 -0.03001,-0.00924 -0.04815,-0.001983 -0.02004,0.008019 -0.01409,0.0139721 0.01518,0.0151775 0.02648,0.001091 0.04132,-0.004847 0.03297,-0.0131945 z"
     id="path51" />
  <path
     style="fill:#ff0000;stroke-width:0.0251215"
     d="M 48.296037,8.7266081 C 47.794525,8.6477259 47.268621,8.2940444 46.414411,7.4611753 45.215927,6.2926345 44.985029,5.8161748 44.983898,4.5093049 c -6.43e-4,-0.7440946 0.08201,-1.194698 0.299552,-1.6329883 0.264662,-0.5332338 0.954218,-1.3157262 1.591996,-1.806561 0.468853,-0.36083043 1.031126,-0.52194318 1.948142,-0.55821831 0.855275,-0.0338327 1.525205,0.096389 2.21069,0.42971595 1.137093,0.55292756 1.967459,1.57926306 2.277022,2.81440736 0.06389,0.2549363 0.09155,1.0332167 0.05016,1.4114911 -0.06529,0.5966295 -0.429216,1.3926846 -0.94329,2.0633446 -0.238487,0.31113 -0.731725,0.7945273 -0.964059,0.944823 -0.341665,0.2210218 -0.918511,0.407084 -1.562857,0.5041004 -0.257108,0.038712 -1.428755,0.07337 -1.595214,0.047188 z M 48.51585,8.6000288 c -0.01727,-0.00697 -0.04553,-0.00697 -0.0628,0 -0.01727,0.00697 -0.0031,0.012671 0.0314,0.012671 0.03454,0 0.04867,-0.0057 0.0314,-0.012671 z m -0.150729,-0.025122 c -0.01727,-0.00697 -0.04553,-0.00697 -0.0628,0 -0.01727,0.00697 -0.0031,0.012671 0.0314,0.012671 0.03454,0 0.04867,-0.0057 0.0314,-0.012671 z m -0.157009,-0.033606 c -0.02072,-0.013394 -0.05464,-0.023731 -0.07536,-0.022971 -0.02485,9.107e-4 -0.02057,0.00874 0.01256,0.022971 0.06906,0.029677 0.108725,0.029677 0.0628,0 z m 1.952672,-0.015178 c -0.0083,-0.00835 -0.03001,-0.00924 -0.04815,-0.00198 -0.02004,0.00802 -0.01409,0.013972 0.01518,0.015177 0.02648,0.00109 0.04132,-0.00485 0.03297,-0.013194 z M 47.841551,8.3935365 C 47.087719,8.0309992 46.207328,7.244794 45.714345,6.4939015 45.55707,6.2543476 45.517933,6.2029647 45.570837,6.3054904 c 0.281401,0.5453501 1.145454,1.4299019 1.824725,1.8680149 0.184631,0.1190826 0.624489,0.3429581 0.672559,0.3423138 0.01482,-1.985e-4 -0.08714,-0.055226 -0.22657,-0.1222826 z m 2.419719,0.1074662 c -0.0083,-0.00835 -0.03002,-0.00924 -0.04815,-0.00198 -0.02004,0.00802 -0.01409,0.013972 0.01518,0.015177 0.02648,0.00109 0.04132,-0.00485 0.03297,-0.013194 z m 0.100485,-0.025122 c -0.0083,-0.00835 -0.03001,-0.00924 -0.04815,-0.00198 -0.02004,0.00802 -0.01409,0.013972 0.01518,0.015177 0.02648,0.00109 0.04132,-0.00485 0.03297,-0.013194 z m 0.144972,-0.035065 c 0.03313,-0.014236 0.03741,-0.02206 0.01256,-0.022971 -0.02073,-7.597e-4 -0.05464,0.00958 -0.07536,0.022971 -0.04592,0.029676 -0.0063,0.029676 0.0628,0 z m 0.21588,-0.072051 c 0.335224,-0.1158281 0.875029,-0.4250581 1.015073,-0.5814896 0.02763,-0.030867 -0.03454,0.00775 -0.138169,0.085807 -0.203527,0.1533161 -0.620639,0.3767696 -0.872971,0.4676649 -0.08635,0.031107 -0.157009,0.060696 -0.157009,0.065753 0,0.014316 0.0085,0.01222 0.153076,-0.037735 z m 1.291409,-0.8323222 c 0.109886,-0.1105345 0.194141,-0.2009718 0.187232,-0.2009718 -0.0069,0 -0.102468,0.090437 -0.212354,0.2009718 -0.109886,0.1105345 -0.19414,0.2009718 -0.187232,0.2009718 0.0069,0 0.102468,-0.090437 0.212354,-0.2009718 z m 0.251215,-0.2763363 c 0.02501,-0.027634 0.03982,-0.050243 0.03291,-0.050243 -0.0069,0 -0.03302,0.022609 -0.05803,0.050243 -0.02501,0.027634 -0.03982,0.050243 -0.03291,0.050243 0.0069,0 0.03302,-0.022609 0.05803,-0.050243 z M 52.524886,6.900109 C 52.66405,6.685192 52.982122,6.0825409 52.980441,6.0369682 52.980028,6.0257621 52.892409,6.1861634 52.785733,6.3934156 52.679057,6.6006678 52.526005,6.86553 52.445619,6.9819982 52.365232,7.0984664 52.31662,7.1795178 52.337592,7.1621124 52.358565,7.144707 52.442846,7.0268056 52.524886,6.900109 Z M 45.47727,6.09266 C 45.44019,6.017054 45.40564,5.9594062 45.40049,5.9645546 c -0.01129,0.011286 0.115426,0.2655714 0.132335,0.2655714 0.0065,0 -0.01847,-0.06186 -0.05556,-0.137466 z m 7.577507,-0.2267954 c 0,-0.013817 -0.01616,0.00314 -0.0359,0.037682 -0.01975,0.034542 -0.0359,0.074108 -0.0359,0.087925 0,0.013817 0.01616,-0.00314 0.0359,-0.037682 0.01975,-0.034542 0.0359,-0.074108 0.0359,-0.087925 z m -7.720102,-0.079424 c -0.02125,-0.039218 -0.03909,-0.063358 -0.03965,-0.053646 -0.0017,0.029861 0.05674,0.1464979 0.06784,0.1353967 0.0057,-0.00575 -0.0069,-0.042533 -0.0282,-0.081751 z m 7.782847,-0.083866 c 0.01167,-0.043648 0.0097,-0.05131 -0.0065,-0.025122 -0.01281,0.020725 -0.03084,0.065944 -0.04008,0.100486 -0.01167,0.043648 -0.0097,0.05131 0.0065,0.025121 0.01281,-0.020725 0.03084,-0.065944 0.04008,-0.100485 z m -7.884435,-0.190604 c -0.01981,-0.054061 -0.03681,-0.085849 -0.03778,-0.070639 -0.0025,0.038433 0.05209,0.1906386 0.06404,0.178688 0.0054,-0.00537 -0.0064,-0.053988 -0.02626,-0.108049 z m 7.966238,-0.090442 c -0.008,-0.02004 -0.01397,-0.014088 -0.01518,0.015178 -0.0011,0.026482 0.0048,0.04132 0.01319,0.032972 0.0083,-0.00835 0.0092,-0.030015 0.002,-0.04815 z M 45.164549,5.2542534 c -0.01641,-0.071096 -0.03483,-0.1242694 -0.04094,-0.1181639 -0.0061,0.00611 0.0028,0.068845 0.01968,0.1394204 0.01693,0.070576 0.03535,0.1237494 0.04094,0.1181637 0.0056,-0.00559 -0.0033,-0.068325 -0.01968,-0.1394202 z m -0.05486,-0.2362386 c -0.007,-0.017271 -0.01267,-0.00314 -0.01267,0.031402 0,0.034542 0.0057,0.048673 0.01267,0.031402 0.007,-0.017271 0.007,-0.045533 0,-0.062804 z M 53.299288,4.289492 c -0.007,-0.017271 -0.01267,-0.00314 -0.01267,0.031402 0,0.034542 0.0057,0.048673 0.01267,0.031402 0.007,-0.017271 0.007,-0.045533 0,-0.062804 z M 45.084565,4.0885202 c -0.007,-0.017271 -0.01267,-0.00314 -0.01267,0.031402 0,0.034542 0.0057,0.048673 0.01267,0.031402 0.007,-0.017271 0.007,-0.045533 0,-0.062804 z m 8.126149,-0.2983457 c -0.17516,-0.6934873 -0.496949,-1.2909218 -0.958985,-1.7804564 -0.175884,-0.1863516 -0.175597,-0.185825 0.02625,0.048171 0.485533,0.5628673 0.807417,1.2081747 0.94665,1.8978248 0.025,0.1238461 0.0487,0.2029787 0.05266,0.1758503 0.004,-0.027129 -0.026,-0.1807543 -0.06657,-0.3413901 z m -8.072898,0.040851 c 3.67e-4,-0.03937 -0.0039,-0.036652 -0.01965,0.012561 -0.01106,0.034542 -0.0199,0.091065 -0.01964,0.1256074 4.2e-4,0.056413 0.0024,0.055135 0.01964,-0.012561 0.01055,-0.04145 0.01939,-0.097974 0.01965,-0.1256074 z m 0.05145,-0.2135326 c 4.53e-4,-0.023086 -0.0076,-0.018221 -0.02085,0.012561 -0.01187,0.027634 -0.02126,0.072852 -0.02085,0.1004859 5.94e-4,0.04039 0.0047,0.037927 0.02085,-0.012561 0.01106,-0.034542 0.02045,-0.079761 0.02085,-0.1004859 z m 0.129108,-0.3642614 c 0,-0.013817 -0.01096,-0.00816 -0.02435,0.012561 -0.01339,0.020725 -0.02435,0.048987 -0.02435,0.062804 0,0.013817 0.01096,0.00816 0.02435,-0.012561 0.01339,-0.020725 0.02435,-0.048987 0.02435,-0.062804 z m 0.149128,-0.3265792 c 0,-0.013817 -0.03285,0.037054 -0.07299,0.1130467 -0.04015,0.075992 -0.07299,0.1494728 -0.07299,0.1632896 0,0.013817 0.03285,-0.037054 0.07299,-0.1130467 0.04015,-0.075992 0.07299,-0.1494727 0.07299,-0.1632896 z m 0.06517,-0.1130466 c 0.02144,-0.04145 0.03332,-0.075364 0.02641,-0.075364 -0.0069,0 -0.0301,0.033914 -0.05153,0.075364 -0.02143,0.04145 -0.03332,0.075364 -0.02641,0.075364 0.0069,0 0.0301,-0.033914 0.05153,-0.075364 z m 0.263776,-0.405958 c 0.281341,-0.4042751 0.982951,-1.0817681 1.447181,-1.3974364 0.02615,-0.0177817 -0.0012,-0.00683 -0.06075,0.024329 -0.381384,0.1995285 -1.298604,1.1410399 -1.574089,1.6157761 -0.06271,0.1080616 1.2e-4,0.026818 0.187661,-0.2426684 z m 6.104518,-0.7331756 c 0,-0.00477 -0.02544,-0.030202 -0.05652,-0.056523 l -0.05652,-0.047856 0.04786,0.056523 c 0.04497,0.053118 0.06519,0.06796 0.06519,0.047856 z M 51.649754,1.4726823 c 0,-0.00522 -0.01978,-0.025 -0.04396,-0.043962 -0.03984,-0.031248 -0.04073,-0.030359 -0.0095,0.00948 0.03282,0.041846 0.05345,0.055154 0.05345,0.034478 z M 51.034278,1.0802235 c -0.0085,-0.013817 -0.02899,-0.024948 -0.04545,-0.024737 -0.01798,2.311e-4 -0.01488,0.010104 0.0078,0.024737 0.04826,0.031189 0.05696,0.031189 0.03768,0 z m -3.56523,-0.19476584 c -0.01149,-0.0114921 -0.165309,0.0647681 -0.165309,0.0819579 0,0.00633 0.03942,-0.007291 0.08761,-0.030269 0.04819,-0.022978 0.08315,-0.046238 0.0777,-0.0516889 z m 3.301455,0.0691584 c -0.02072,-0.0133937 -0.04899,-0.0243521 -0.0628,-0.0243521 -0.01382,0 -0.0082,0.0109584 0.01256,0.0243521 0.02072,0.0133937 0.04899,0.0243521 0.0628,0.0243521 0.01382,0 0.0082,-0.0109584 -0.01256,-0.0243521 z M 47.630318,0.8290087 c 0.02072,-0.0133937 0.02638,-0.0243521 0.01256,-0.0243521 -0.01382,0 -0.04208,0.0109584 -0.0628,0.0243521 -0.02072,0.0133937 -0.02638,0.0243521 -0.01256,0.0243521 0.01382,0 0.04208,-0.0109584 0.0628,-0.0243521 z m 2.813606,0 c -0.02073,-0.0133937 -0.05464,-0.0237307 -0.07537,-0.0229711 -0.02485,9.1057e-4 -0.02057,0.008735 0.01256,0.0229711 0.06906,0.0296766 0.108725,0.0296766 0.0628,0 z M 50.20527,0.75364428 c -0.02763,-0.0118746 -0.0672,-0.0215901 -0.08793,-0.0215901 -0.02375,0 -0.01911,0.007981 0.01256,0.0215901 0.02763,0.0118746 0.0672,0.0215901 0.08792,0.0215901 0.02375,0 0.01911,-0.007981 -0.01256,-0.0215901 z m -0.144972,-0.040299 c -0.0083,-0.008348 -0.03002,-0.00924 -0.04815,-0.001983 -0.02004,0.008019 -0.01409,0.0139721 0.01518,0.0151776 0.02648,0.001091 0.04132,-0.004847 0.03297,-0.0131946 z m -0.100486,-0.0251215 c -0.0083,-0.008348 -0.03001,-0.00924 -0.04815,-0.001983 -0.02004,0.008019 -0.01409,0.0139721 0.01518,0.0151776 0.02648,0.001091 0.04132,-0.004847 0.03297,-0.0131946 z"
     id="path52" />
  <path
     style="fill:#ff0000;stroke-width:0.0251215"
     d="M 48.1848,8.7051378 C 47.690717,8.5922431 47.17833,8.2200338 46.28507,7.3251317 45.184817,6.2228569 44.984509,5.7874972 44.983737,4.4967442 c -3.24e-4,-0.5426008 0.02377,-0.769874 0.121166,-1.1430272 0.14556,-0.5576741 0.488774,-1.0695369 1.179859,-1.759621 0.697124,-0.6961135 1.134363,-0.92637969 1.986154,-1.04598159 0.354571,-0.0497862 1.300301,-0.0410552 1.607774,0.0148429 0.903844,0.16431749 1.667826,0.56388599 2.311176,1.20876249 0.550057,0.5513623 0.931094,1.2254087 1.121517,1.9839408 0.065,0.2589256 0.09253,1.0642927 0.04901,1.4336169 C 53.288203,5.8017888 52.859827,6.6988438 52.33228,7.3422043 52.108021,7.6156917 51.654846,8.0454626 51.453115,8.1759619 51.112004,8.396625 50.518309,8.5882626 49.891251,8.680113 49.502216,8.7370981 48.39569,8.753325 48.1848,8.7051378 Z m 0.317966,-0.1036492 c -0.0083,-0.00835 -0.03001,-0.00924 -0.04815,-0.00198 -0.02004,0.00802 -0.01409,0.013972 0.01518,0.015177 0.02648,0.00109 0.04132,-0.00485 0.03297,-0.013194 z m -0.294654,-0.060187 c -0.02072,-0.013394 -0.05464,-0.023731 -0.07536,-0.022971 -0.02485,9.107e-4 -0.02057,0.00874 0.01256,0.022971 0.06906,0.029677 0.108725,0.029677 0.0628,0 z M 47.841551,8.3935365 C 47.385957,8.1744298 46.937872,7.8445946 46.424487,7.3504368 l -0.314018,-0.3022581 0.251215,0.2588427 c 0.472483,0.4868296 0.971994,0.8656828 1.442661,1.0941822 0.130257,0.063237 0.248956,0.1148142 0.263776,0.1146155 0.01482,-1.985e-4 -0.08714,-0.055226 -0.22657,-0.1222826 z m 2.419719,0.1074662 c -0.0083,-0.00835 -0.03002,-0.00924 -0.04815,-0.00198 -0.02004,0.00802 -0.01409,0.013972 0.01518,0.015177 0.02648,0.00109 0.04132,-0.00485 0.03297,-0.013194 z m 0.245457,-0.060187 c 0.03313,-0.014236 0.03741,-0.02206 0.01256,-0.022971 -0.02073,-7.597e-4 -0.05464,0.00958 -0.07536,0.022971 -0.04592,0.029676 -0.0063,0.029676 0.0628,0 z M 50.923905,8.287958 c 0.09128,-0.039537 0.237965,-0.1125839 0.325967,-0.1623259 0.166743,-0.094249 0.475247,-0.30668 0.475247,-0.3272485 0,-0.00652 -0.08761,0.049522 -0.194692,0.12454 -0.169952,0.1190647 -0.59637,0.3448071 -0.822728,0.4355459 -0.05634,0.022586 -0.05951,0.026572 -0.01256,0.015792 0.03454,-0.00793 0.137487,-0.046767 0.228767,-0.086304 z m 1.090111,-0.7515152 c 0.09598,-0.096718 0.16885,-0.1758504 0.161942,-0.1758504 -0.0069,0 -0.09109,0.079133 -0.187064,0.1758504 -0.09598,0.096718 -0.16885,0.1758503 -0.161942,0.1758503 0.0069,0 0.09109,-0.079133 0.187064,-0.1758503 z m 0.251215,-0.2763363 c 0.02501,-0.027634 0.03982,-0.050243 0.03291,-0.050243 -0.0069,0 -0.03302,0.022609 -0.05803,0.050243 -0.02501,0.027634 -0.03982,0.050243 -0.03291,0.050243 0.0069,0 0.03302,-0.022609 0.05803,-0.050243 z M 52.537343,6.88367 c 0.07786,-0.1318028 0.02781,-0.081846 -0.06882,0.068698 -0.051,0.079447 -0.06644,0.1135343 -0.03432,0.07575 0.03212,-0.037784 0.07853,-0.102786 0.103145,-0.1444485 z M 45.965502,6.8393067 C 45.879432,6.7322182 45.759639,6.5683005 45.699294,6.4750453 45.63895,6.3817901 45.584586,6.3054904 45.578485,6.3054904 c -0.01439,0 0.0017,0.026636 0.146438,0.2429026 0.117924,0.1761623 0.363864,0.4856202 0.385944,0.4856202 0.0061,0 -0.05929,-0.087618 -0.145365,-0.1947065 z m 6.66399,-0.1067512 c 0.01479,-0.027634 0.02124,-0.050243 0.01433,-0.050243 -0.0069,0 -0.02466,0.022609 -0.03945,0.050243 -0.01479,0.027634 -0.02124,0.050243 -0.01433,0.050243 0.0069,0 0.02466,-0.022609 0.03945,-0.050243 z m 0.125607,-0.2260932 c 0.04185,-0.082901 0.07044,-0.1507289 0.06353,-0.1507289 -0.0069,0 -0.0468,0.067828 -0.08865,0.1507289 -0.04185,0.082901 -0.07044,0.1507288 -0.06353,0.1507288 0.0069,0 0.0468,-0.067828 0.08865,-0.1507288 z m 0.223723,-0.4647474 c 0,-0.013817 -0.03285,0.037054 -0.07299,0.1130467 -0.04015,0.075993 -0.07299,0.1494728 -0.07299,0.1632896 0,0.013817 0.03285,-0.037054 0.07299,-0.1130467 0.04015,-0.075992 0.07299,-0.1494727 0.07299,-0.1632896 z M 45.47727,6.09266 C 45.44019,6.017054 45.40564,5.9594062 45.40049,5.9645546 c -0.01129,0.011286 0.115426,0.2655714 0.132335,0.2655714 0.0065,0 -0.01847,-0.06186 -0.05556,-0.137466 z m 7.577507,-0.2267954 c 0,-0.013817 -0.01616,0.00314 -0.0359,0.037682 -0.01975,0.034542 -0.0359,0.074108 -0.0359,0.087925 0,0.013817 0.01616,-0.00314 0.0359,-0.037682 0.01975,-0.034542 0.0359,-0.074108 0.0359,-0.087925 z m 0.07637,-0.2009718 c 0,-0.013817 -0.01096,-0.00816 -0.02435,0.012561 -0.01339,0.020725 -0.02435,0.048987 -0.02435,0.062804 0,0.013817 0.01096,0.00816 0.02435,-0.012561 0.01339,-0.020725 0.02435,-0.048987 0.02435,-0.062804 z M 45.15993,5.2441081 c -0.007,-0.017271 -0.01267,-0.00314 -0.01267,0.031402 0,0.034542 0.0057,0.048673 0.01267,0.031402 0.007,-0.017271 0.007,-0.045533 0,-0.062804 z m -0.0246,-0.098916 c -0.008,-0.02004 -0.01397,-0.014088 -0.01518,0.015178 -0.0011,0.026482 0.0048,0.04132 0.01319,0.032972 0.0083,-0.00835 0.0092,-0.030015 0.002,-0.04815 z M 45.11021,5.0195849 c -0.008,-0.02004 -0.01397,-0.014088 -0.01518,0.015178 -0.0011,0.026482 0.0048,0.04132 0.01319,0.032972 0.0083,-0.00835 0.0092,-0.030015 0.002,-0.04815 z m 8.16448,-0.9294946 c -0.008,-0.02004 -0.01397,-0.014088 -0.01518,0.015178 -0.0011,0.026482 0.0048,0.04132 0.01319,0.032972 0.0083,-0.00835 0.0092,-0.030015 0.002,-0.04815 z M 53.24497,3.9189502 c -0.0097,-0.057129 -0.02245,-0.098966 -0.02845,-0.092972 -0.006,0.00599 -0.0034,0.058007 0.0058,0.1155812 0.0092,0.057575 0.02201,0.099412 0.02845,0.092972 0.0064,-0.00644 0.0038,-0.058452 -0.0058,-0.1155812 z m -8.135281,0.018841 c -0.007,-0.017271 -0.01267,-0.00314 -0.01267,0.031402 0,0.034542 0.0057,0.048673 0.01267,0.031402 0.007,-0.017271 0.007,-0.045533 0,-0.062804 z m 0.02564,-0.1240372 c -0.008,-0.02004 -0.01397,-0.014088 -0.01518,0.015178 -0.0011,0.026482 0.0048,0.04132 0.01319,0.032972 0.0083,-0.00835 0.0092,-0.030015 0.002,-0.04815 z m 8.0576,-0.106542 c -0.0092,-0.036816 -0.02164,-0.062093 -0.02757,-0.056172 -0.0059,0.00592 -0.0032,0.040888 0.006,0.077704 0.0092,0.036816 0.02164,0.062093 0.02757,0.056172 0.0059,-0.00592 0.0032,-0.040889 -0.006,-0.077704 z m -0.07357,-0.2404484 c -0.02354,-0.070874 -0.04697,-0.1246927 -0.05207,-0.1195966 -0.0051,0.0051 0.0095,0.067797 0.03233,0.1393348 0.02288,0.071538 0.04631,0.1253564 0.05207,0.1195965 0.0058,-0.00576 -0.0088,-0.068461 -0.03233,-0.1393347 z M 45.318373,3.2532311 c 0,-0.013817 -0.01096,-0.00816 -0.02435,0.012561 -0.01339,0.020725 -0.02435,0.048987 -0.02435,0.062804 0,0.013817 0.01096,0.00816 0.02435,-0.012561 0.01339,-0.020725 0.02435,-0.048987 0.02435,-0.062804 z m 7.665746,-0.1295173 c -0.02802,-0.053117 -0.05145,-0.088481 -0.05206,-0.078587 -0.0018,0.028888 0.08228,0.195896 0.09313,0.1850382 0.0054,-0.00543 -0.01305,-0.053334 -0.04107,-0.1064512 z m -7.590381,-0.046333 c 0,-0.013817 -0.01096,-0.00816 -0.02435,0.012561 -0.01339,0.020725 -0.02435,0.048987 -0.02435,0.062804 0,0.013817 0.01096,0.00816 0.02435,-0.012561 0.01339,-0.020725 0.02435,-0.048987 0.02435,-0.062804 z m 7.423741,-0.2939164 c -0.12652,-0.2210902 -0.32294,-0.5098166 -0.364159,-0.535291 -0.01358,-0.00839 0.03464,0.067911 0.107144,0.1695604 0.07251,0.1016498 0.182703,0.2765806 0.244878,0.3887352 0.06218,0.1121546 0.11719,0.1997756 0.122253,0.1947131 0.0051,-0.00506 -0.04449,-0.1030355 -0.110116,-0.2177177 z m -7.297365,0.055262 c 0.01479,-0.027634 0.02124,-0.050243 0.01433,-0.050243 -0.0069,0 -0.02466,0.022609 -0.03945,0.050243 -0.01479,0.027634 -0.02124,0.050243 -0.01433,0.050243 0.0069,0 0.02466,-0.022609 0.03945,-0.050243 z m 0.303334,-0.4710277 c 0.05962,-0.079447 0.09152,-0.1308282 0.0709,-0.1141811 -0.04229,0.034127 -0.207559,0.2586296 -0.190397,0.2586296 0.0061,0 0.05988,-0.065002 0.119502,-0.1444485 z m 0.173974,-0.2198129 c 0.03245,-0.034542 0.05335,-0.062804 0.04644,-0.062804 -0.0069,0 -0.03911,0.028262 -0.07156,0.062804 -0.03245,0.034542 -0.05335,0.062804 -0.04644,0.062804 0.0069,0 0.03911,-0.028262 0.07156,-0.062804 z m 6.431098,0.054622 c 0,-0.0045 -0.03109,-0.035588 -0.06908,-0.069084 l -0.06908,-0.060902 0.0609,0.069084 c 0.05692,0.06457 0.07727,0.080605 0.07727,0.060902 z M 46.952038,1.2193539 c 0.175159,-0.1310171 0.239021,-0.1857557 0.175851,-0.1507286 -0.140642,0.077984 -0.364515,0.2719219 -0.690841,0.5984658 L 46.060226,2.0441652 46.424487,1.692829 c 0.200344,-0.193235 0.437742,-0.4062987 0.527551,-0.4734751 z m 5.325753,0.8073039 c 0,-0.0045 -0.03109,-0.035588 -0.06908,-0.069084 l -0.06908,-0.060902 0.0609,0.069084 c 0.05692,0.064569 0.07727,0.080604 0.07727,0.060902 z M 51.900969,1.6736541 c 0,-0.00522 -0.01978,-0.025 -0.04396,-0.043963 -0.03984,-0.031248 -0.04073,-0.030359 -0.0095,0.00948 0.03282,0.041846 0.05345,0.055154 0.05345,0.034478 z M 51.649754,1.4726823 c 0,-0.00522 -0.01978,-0.025 -0.04396,-0.043962 -0.03984,-0.031248 -0.04073,-0.030359 -0.0095,0.00948 0.03282,0.041846 0.05345,0.055154 0.05345,0.034478 z M 47.469048,0.88545766 c -0.01149,-0.0114921 -0.165309,0.0647681 -0.165309,0.0819579 0,0.00633 0.03942,-0.007291 0.08761,-0.030269 0.04819,-0.022978 0.08315,-0.046238 0.0777,-0.0516889 z m 3.288894,0.0691584 c -0.0085,-0.0138168 -0.02899,-0.0249484 -0.04545,-0.0247368 -0.01798,2.3115e-4 -0.01488,0.0101045 0.0078,0.0247368 0.04826,0.0311889 0.05696,0.0311889 0.03768,0 z M 47.630318,0.8290087 c 0.02072,-0.0133937 0.02638,-0.0243521 0.01256,-0.0243521 -0.01382,0 -0.04208,0.0109584 -0.0628,0.0243521 -0.02072,0.0133937 -0.02638,0.0243521 -0.01256,0.0243521 0.01382,0 0.04208,-0.0109584 0.0628,-0.0243521 z m 2.813606,0 c -0.02073,-0.0133937 -0.04899,-0.0243521 -0.0628,-0.0243521 -0.01382,0 -0.0082,0.0109584 0.01256,0.0243521 0.02072,0.0133937 0.04899,0.0243521 0.0628,0.0243521 0.01382,0 0.0082,-0.0109584 -0.01256,-0.0243521 z"
     id="path53" />
</svg>
