<?xml version="1.0" encoding="UTF-8" standalone="no"?>
<svg
   version="1.1"
   id="Layer_1"
   x="0px"
   y="0px"
   viewBox="0 0 121.84 122.88"
   style="enable-background:new 0 0 121.84 122.88"
   xml:space="preserve"
   sodipodi:docname="scan.svg"
   inkscape:version="1.4.3 (fcd0343856, 2026-01-01)"
   xmlns:inkscape="http://www.inkscape.org/namespaces/inkscape"
   xmlns:sodipodi="http://sodipodi.sourceforge.net/DTD/sodipodi-0.dtd"
   xmlns="http://www.w3.org/2000/svg"
   xmlns:svg="http://www.w3.org/2000/svg"><defs
     id="defs1" /><sodipodi:namedview
     id="namedview1"
     pagecolor="#ffffff"
     bordercolor="#000000"
     borderopacity="0.25"
     inkscape:showpageshadow="2"
     inkscape:pageopacity="0.0"
     inkscape:pagecheckerboard="0"
     inkscape:deskcolor="#d1d1d1"
     inkscape:zoom="6.5348309"
     inkscape:cx="60.904407"
     inkscape:cy="61.439999"
     inkscape:window-width="1920"
     inkscape:window-height="1011"
     inkscape:window-x="0"
     inkscape:window-y="0"
     inkscape:window-maximized="1"
     inkscape:current-layer="Layer_1" /><g
     id="g1"><path
       d="M51.91,48.76h18.32c0.68,0,1.32,0.14,1.92,0.38c0.61,0.25,1.17,0.63,1.63,1.09l0,0c0.46,0.46,0.84,1.02,1.09,1.63 c0.25,0.59,0.38,1.24,0.38,1.92V59h5.32c0.47,0,0.9,0.15,1.26,0.4c0.36,0.26,0.64,0.63,0.79,1.05l9.7,23.3 c0.96-1.32,1.84-2.69,2.63-4.12c0.89-1.61,1.67-3.29,2.32-5.03c0.81-2.15,1.44-4.4,1.86-6.72c0.41-2.26,0.62-4.59,0.62-6.99 c0-4.29-0.69-8.42-1.97-12.28c-1.33-4-3.29-7.7-5.76-11c-2.25-3-4.93-5.67-7.94-7.91c-2.87-2.13-6.04-3.88-9.43-5.16 c-0.09,0.31-0.22,0.61-0.38,0.89c-0.23,0.42-0.53,0.82-0.88,1.16c-0.4,0.4-0.87,0.73-1.38,1c-0.49,0.26-1.03,0.44-1.58,0.55 c-0.02,0.01-0.04,0.01-0.06,0.01l-0.01,0c-0.16,0.03-0.32,0.05-0.48,0.07l-0.01,0c-0.17,0.02-0.33,0.02-0.47,0.02H53.99 c-0.11,0-0.23,0-0.35-0.01c-0.11-0.01-0.24-0.02-0.38-0.04c-0.6-0.08-1.18-0.26-1.72-0.53c-0.55-0.27-1.04-0.62-1.46-1.03 c-0.42-0.42-0.78-0.9-1.03-1.43c-0.18-0.37-0.31-0.77-0.38-1.18c-3.57,1.19-6.91,2.88-9.93,4.99c-3.19,2.23-6.03,4.92-8.43,7.98 c-2.62,3.35-4.7,7.14-6.11,11.25c-1.36,3.96-2.1,8.22-2.1,12.64c0,2.39,0.21,4.73,0.62,6.99c0.42,2.32,1.05,4.56,1.86,6.72 c0.68,1.81,1.49,3.55,2.43,5.22c0.84,1.49,1.77,2.93,2.79,4.3l10.13-23.8c0.17-0.4,0.45-0.73,0.79-0.96 c0.33-0.22,0.72-0.34,1.12-0.36C41.85,59,41.87,59,41.9,59h4.95v-5.18c0-0.68,0.14-1.34,0.39-1.93c0.26-0.62,0.63-1.18,1.1-1.64 c0.47-0.47,1.02-0.84,1.64-1.1C50.58,48.89,51.23,48.76,51.91,48.76L51.91,48.76z M72.8,63.33c-0.13,0.04-0.26,0.06-0.39,0.08 c-0.15,0.02-0.31,0.03-0.46,0.03H50.16c-0.15,0-0.31-0.01-0.46-0.03c-0.13-0.02-0.27-0.05-0.4-0.08h-5.97L28.1,99.11h65.93 l-4.16-9.99c-0.06-0.1-0.12-0.2-0.16-0.31c-0.05-0.11-0.08-0.22-0.11-0.33L79.13,63.33H72.8L72.8,63.33z M22.84,100.42l5.01-11.77 c-1.53-1.83-2.92-3.78-4.14-5.86c-1.25-2.11-2.32-4.34-3.19-6.67c-0.9-2.4-1.6-4.9-2.07-7.48c-0.46-2.52-0.7-5.11-0.7-7.75 c0-4.91,0.82-9.64,2.34-14.04c1.57-4.56,3.89-8.78,6.8-12.51c2.82-3.61,6.21-6.76,10.02-9.32c3.69-2.47,7.78-4.39,12.15-5.64 l1.94-14.21c-5.67,1-11.05,2.85-16,5.4c-5.22,2.7-9.98,6.18-14.1,10.31c-5.22,5.22-9.42,11.45-12.29,18.37 C5.86,45.93,4.33,53.24,4.33,60.9c0,4.36,0.49,8.6,1.42,12.67c0.96,4.19,2.38,8.21,4.21,11.98c1.61,3.33,3.55,6.48,5.76,9.41 c2.07,2.74,4.37,5.28,6.88,7.59l0.07-1.39c0.01-0.13,0.02-0.26,0.05-0.38C22.76,100.66,22.8,100.54,22.84,100.42L22.84,100.42z M51.18,59h19.74v-5.22c0-0.09-0.02-0.18-0.05-0.26c-0.04-0.08-0.09-0.16-0.15-0.22l0,0c-0.06-0.06-0.14-0.12-0.22-0.15 c-0.08-0.03-0.17-0.05-0.26-0.05H51.91c-0.1,0-0.19,0.02-0.28,0.06c-0.09,0.04-0.17,0.09-0.24,0.16c-0.07,0.07-0.12,0.15-0.16,0.24 c-0.04,0.08-0.05,0.18-0.05,0.28V59L51.18,59z M94.23,88.35l5.03,12.09c0.06,0.14,0.1,0.27,0.12,0.41 c0.03,0.14,0.04,0.28,0.04,0.42l0.05,1.05c2.54-2.37,4.86-4.96,6.93-7.76c2.21-2.99,4.14-6.2,5.74-9.59c1.74-3.7,3.09-7.62,4-11.71 c0.88-3.97,1.35-8.11,1.35-12.36c0-7.67-1.52-14.98-4.28-21.64c-2.87-6.92-7.07-13.15-12.29-18.37 c-4.03-4.03-8.67-7.46-13.75-10.13c-4.82-2.53-10.04-4.38-15.55-5.44l2.65,14.53c4.21,1.37,8.13,3.37,11.66,5.88 c3.64,2.59,6.86,5.73,9.53,9.31c2.75,3.67,4.93,7.79,6.41,12.24c1.43,4.29,2.2,8.87,2.2,13.63c0,2.64-0.24,5.23-0.7,7.75 c-0.47,2.58-1.17,5.08-2.07,7.48c-0.85,2.26-1.89,4.44-3.09,6.5C97.05,84.64,95.71,86.56,94.23,88.35L94.23,88.35z M99.76,107.84 l0.63,12.77c0.03,0.6-0.19,1.15-0.56,1.56s-0.9,0.68-1.5,0.7l-0.02,0c-0.02,0.01-0.05,0.01-0.08,0.01H23.88 c-0.6,0-1.14-0.24-1.53-0.63l-0.02-0.02c-0.38-0.39-0.61-0.92-0.61-1.51l0-0.14l0.01-0.11l0.61-12.43 c-3.39-2.78-6.48-5.92-9.2-9.35c-2.74-3.47-5.12-7.23-7.07-11.25c-1.97-4.07-3.51-8.39-4.54-12.9C0.53,70.15,0,65.59,0,60.9 c0-8.25,1.64-16.12,4.61-23.3c3.09-7.46,7.61-14.17,13.23-19.78c5.84-5.84,12.53-10.28,19.81-13.27C45.01,1.54,52.97,0,61.24,0 c8.04,0,15.86,1.59,23.09,4.61C91.59,7.64,98.27,12.1,104,17.83c5.61,5.61,10.14,12.32,13.23,19.78c2.97,7.18,4.61,15.05,4.61,23.3 c0,4.56-0.5,9-1.46,13.28c-0.98,4.4-2.44,8.63-4.32,12.62c-1.92,4.07-4.27,7.9-6.99,11.41C106.33,101.76,103.2,104.99,99.76,107.84 L99.76,107.84z M26.89,103.45l-0.74,15.1h69.8l-0.74-15.1H26.89L26.89,103.45z M67.12,4.65c-0.98-0.11-1.96-0.19-2.95-0.24 c-1.07-0.06-2.15-0.09-3.25-0.09c-0.98,0-1.95,0.02-2.89,0.07c-0.86,0.04-1.72,0.11-2.57,0.19l-2.27,16.59 c0,0.08-0.01,0.16-0.02,0.23c-0.01,0.08-0.03,0.16-0.05,0.24l-0.21,1.52l0,0.1c0.01,0.03,0.02,0.07,0.04,0.11 c0.04,0.07,0.09,0.14,0.16,0.21c0.09,0.09,0.21,0.17,0.33,0.23l0.02,0.01c0.12,0.05,0.24,0.09,0.37,0.11l0.05,0l15.52,0 c0.05,0,0.09,0,0.13,0l0.11-0.01c0.13-0.03,0.25-0.07,0.37-0.13c0.12-0.06,0.24-0.14,0.33-0.24c0.06-0.06,0.11-0.12,0.14-0.18 c0.02-0.04,0.03-0.07,0.03-0.1c0-0.03,0.01,0,0.01-0.02l-0.01-0.04L67.12,4.65L67.12,4.65z"
       id="path1" /></g><path
     style="fill:#b3b3b3;stroke-width:0.153026"
     d="m 28.970915,82.759331 c -2.646585,-3.855085 -4.496452,-7.98275 -5.619194,-12.538279 -0.735089,-2.982628 -1.00136,-4.921549 -1.11133,-8.092436 -0.218821,-6.30949 1.016753,-12.21377 3.762748,-17.980572 1.92019,-4.03255 4.223912,-7.238166 7.645044,-10.63804 3.282853,-3.262454 6.03109,-5.280375 9.73473,-7.147824 1.498288,-0.755466 4.837807,-2.184049 5.105531,-2.184049 0.05612,0 0.221799,0.337205 0.368178,0.749344 0.382629,1.077316 1.457488,2.201157 2.681633,2.803836 l 1.019676,0.502013 h 9.108331 9.108332 l 1.029065,-0.487488 c 1.158306,-0.548712 2.210321,-1.535763 2.630898,-2.468436 l 0.27996,-0.620842 0.707997,0.283746 c 4.651055,1.864018 9.208382,4.895149 12.879615,8.566382 6.344698,6.344699 10.232346,14.536821 11.176139,23.550564 0.228895,2.186064 0.103195,7.488009 -0.227259,9.585638 -0.638916,4.055676 -2.024673,8.315964 -3.868467,11.892987 -0.946295,1.835844 -2.931069,5.094089 -3.036071,4.984075 -0.0232,-0.0243 -2.220119,-5.27768 -4.882053,-11.674173 C 84.802484,65.449284 82.501292,60.043635 82.350656,59.833224 81.7702,59.02243 81.282091,58.915565 78.158105,58.915304 l -2.86924,-2.37e-4 v -3.054783 c 0,-2.706749 -0.0358,-3.150482 -0.314277,-3.894765 -0.415466,-1.110432 -1.469651,-2.261694 -2.562253,-2.798205 L 71.539724,48.738828 H 61.130779 50.721834 l -1.021705,0.502959 c -1.226493,0.603771 -2.125043,1.561607 -2.562972,2.732078 -0.274692,0.734178 -0.311156,1.189621 -0.311156,3.886419 v 3.054783 H 44.1074 c -3.015408,0 -3.525366,0.127607 -4.044169,1.011977 -0.142539,0.242974 -2.463764,5.624625 -5.158279,11.959223 -2.694516,6.334599 -4.958992,11.624437 -5.032169,11.755198 -0.104415,0.186579 -0.298511,-0.0033 -0.901868,-0.882134 z"
     id="path2" /><path
     style="fill:#aaeeff;stroke-width:0.153026"
     d="m 28.31684,98.893148 c 0.0039,-0.06312 3.395293,-8.062721 7.536538,-17.776883 L 43.382913,63.45415 61.226982,63.44174 79.071049,63.42933 86.43804,81.111772 c 4.051843,9.725344 7.366989,17.730525 7.366989,17.78929 0,0.05877 -14.736418,0.106847 -32.747596,0.106847 -18.011177,0 -32.744444,-0.05165 -32.740593,-0.11477 z"
     id="path3" /><path
     style="fill:#37abc8;stroke-width:0.153026"
     d="M 20.640586,100.43096 C 18.642342,98.401396 18.047074,97.741607 16.745357,96.113529 5.7584698,82.372051 1.8408308,64.249684 6.1449843,47.077913 10.864364,28.24956 25.053054,13.120776 43.612452,7.1279768 c 2.08575,-0.673485 7.187891,-1.9822398 7.286674,-1.8691108 0.07748,0.088728 -1.92233,13.918827 -2.025984,14.011129 -0.07387,0.06578 -0.822931,0.346311 -1.664575,0.623393 -4.656825,1.533101 -9.434579,4.133064 -13.389788,7.286466 -1.674062,1.334694 -5.305795,4.966667 -6.638486,6.638925 -5.18253,6.50303 -8.328898,14.162206 -9.272249,22.571357 -0.231606,2.064569 -0.191214,7.207761 0.07444,9.478778 0.900306,7.696485 3.824359,15.049659 8.328914,20.944889 0.636236,0.83266 1.216213,1.595686 1.288835,1.695615 0.08379,0.115301 -0.796879,2.365948 -2.410162,6.159421 -1.398211,3.287753 -2.549067,6.177141 -2.557456,6.420871 -0.04455,1.29436 -0.08089,1.28235 -1.99203,-0.65875 z"
     id="path4" /><path
     style="fill:#37abc8;stroke-width:0.153026"
     d="m 99.466997,101.38254 c 0,-0.55253 -0.527768,-1.960734 -2.57366,-6.867089 l -2.573658,-6.172019 0.511776,-0.597521 c 1.023376,-1.194831 3.421969,-4.931385 4.460174,-6.948105 2.410201,-4.681833 3.935761,-9.676905 4.552231,-14.905163 0.45943,-3.896377 0.26511,-9.318297 -0.47088,-13.138364 C 101.49868,43.02592 96.271887,34.131358 88.678653,27.748579 84.899677,24.572018 78.892708,21.180681 75.017648,20.036026 74.570198,19.903853 74.341077,19.74221 74.291656,19.523843 73.9544,18.033659 71.777942,5.6022805 71.842924,5.5372989 c 0.170141,-0.1701411 3.910792,0.7901569 6.75915,1.7352056 8.539647,2.8333455 15.81992,7.3193895 22.195356,13.6765965 8.99945,8.973715 14.47954,20.167838 16.20586,33.103528 0.32292,2.419688 0.4511,8.737998 0.22908,11.291786 -0.92381,10.626356 -4.34471,19.952763 -10.46732,28.537127 -1.79023,2.510034 -5.73618,7.041318 -6.846802,7.862438 l -0.451251,0.33362 z"
     id="path5" /><path
     style="fill:#37abc8;stroke-width:0.153026"
     d="M 20.329995,99.926075 C 5.8522283,85.372376 0.77795678,62.999383 7.4259209,43.030661 12.992331,26.310641 26.386929,12.932696 43.076861,7.4240431 45.690194,6.5614907 50.611815,5.2650664 50.749667,5.4029182 50.865102,5.5183534 48.935524,19.059095 48.781722,19.212897 c -0.02523,0.02523 -0.94041,0.368636 -2.033726,0.763117 -4.99733,1.803096 -9.193895,4.12405 -13.00573,7.192958 -1.881131,1.514497 -6.040302,5.789546 -7.39434,7.60035 -4.43725,5.934094 -7.22764,12.699406 -8.308422,20.143808 -0.282572,1.946351 -0.310778,2.70209 -0.24844,6.656638 0.07814,4.957161 0.269553,6.51718 1.26638,10.321181 1.509555,5.76062 3.914186,10.67155 7.604749,15.531023 l 0.905074,1.191735 -1.226533,3.016484 c -0.674595,1.659065 -1.786092,4.382617 -2.469998,6.052339 -0.683906,1.669721 -1.297961,3.3224 -1.364567,3.67263 l -0.1211,0.63677 z"
     id="path6" /><path
     style="fill:#ff2a2a;stroke-width:0.153026"
     d="m 53.45331,23.689296 c -0.18446,-0.08914 -0.363819,-0.239418 -0.398575,-0.333952 -0.07818,-0.212652 2.432991,-18.6017762 2.55717,-18.725955 0.0493,-0.049301 1.862823,-0.1188436 4.030049,-0.1545386 4.046004,-0.066639 7.184127,0.099395 7.363478,0.3895924 0.05576,0.090224 0.852245,4.2766893 1.769962,9.3032562 l 1.668578,9.139212 -0.348977,0.282584 c -0.329725,0.266994 -0.789143,0.282013 -8.32764,0.272227 -5.281907,-0.0069 -8.092021,-0.06514 -8.314045,-0.172426 z"
     id="path7" /><path
     style="fill:#ff0000;stroke-width:0.153026"
     d="m 51.26376,56.245787 c 0,-2.584886 0.01075,-2.676812 0.340101,-2.907497 0.298576,-0.209131 1.452838,-0.238216 9.453572,-0.238216 8.000735,0 9.154996,0.02909 9.453572,0.238216 0.329349,0.230685 0.340102,0.322611 0.340102,2.907497 v 2.66928 H 61.057433 51.26376 Z"
     id="path8" /><path
     style="fill:#999999;stroke-width:0.153026"
     d="m 26.273068,117.63885 c 0.08388,-1.24194 0.659534,-13.23815 0.659534,-13.74431 v -0.44886 h 34.124831 34.124831 l 0.0011,0.65036 c 6.1e-4,0.3577 0.137835,3.33597 0.304943,6.61838 0.167107,3.28241 0.304332,6.36397 0.304943,6.84792 l 0.0011,0.8799 H 61.006587 26.218805 Z"
     id="path9" /></svg>
